<?xml version="1.0" standalone="no"?>
<!DOCTYPE svg PUBLIC "-//W3C//DTD SVG 1.1//EN" "http://www.w3.org/Graphics/SVG/1.1/DTD/svg11.dtd" >
<svg>
<metadata>
Created by FontForge 20090914 at Thu Jul 19 17:31:30 2012
 By www-data
Copyright (c) Boutros International, 2004. All rights reserved.
</metadata>
<defs>
<font id="GESSTwoMedium-Medium" horiz-adv-x="0" >
  <font-face 
    font-family="GE SS Two Medium"
    font-weight="500"
    font-stretch="normal"
    units-per-em="1000"
    panose-1="2 10 5 3 2 1 2 2 2 4"
    ascent="800"
    descent="-200"
    bbox="-114 -411 1378 981"
    underline-thickness="50"
    underline-position="-50"
    unicode-range="U+0020-U+FEFF"
  />
<missing-glyph horiz-adv-x="500" 
d="M63 0h375v750h-375v-750zM125 63v625h250v-625h-250z" />
    <glyph glyph-name="shaddakasraarabic" unicode="&#x650;&#x651;" arabic-form="isolated" 
d="M230 806l-16 77l-32 -7l14 -68c1 -3 1 -6 1 -8c0 -10 -4 -15 -13 -15c-16 0 -28 10 -32 30l-11 53l-32 -7l11 -53c1 -4 1 -8 1 -12c0 -20 -15 -29 -24 -29c-7 0 -12 6 -15 17l-15 68l-31 -7l16 -77c5 -25 19 -37 42 -37c31 0 47 20 48 53c13 -22 27 -33 44 -33
c31 0 46 16 46 36c0 5 -1 11 -2 19zM258 742l-154 -37c-20 -7 -33 -19 -39 -38c91 19 139 30 146 31c29 7 44 22 47 44z" />
    <glyph glyph-name="shaddakasratanarabic" unicode="&#x64d;&#x651;" arabic-form="isolated" 
d="M204 880l-16 78l-32 -7l15 -68v-9c0 -10 -4 -15 -13 -15c-16 0 -28 11 -32 31l-11 52l-33 -7l12 -53c1 -3 1 -7 1 -12c0 -19 -15 -29 -24 -29c-7 0 -12 6 -15 17l-15 69l-31 -7l16 -77c5 -25 19 -38 42 -38c30 0 47 21 48 53c13 -22 28 -33 44 -33c31 0 47 17 47 36
c0 5 -1 12 -3 19zM231 809l-154 -36c-20 -7 -33 -20 -39 -38c91 19 139 29 145 30c30 7 46 22 48 44zM219 746l-154 -36c-20 -7 -33 -19 -39 -38c91 19 139 30 146 31c29 7 45 22 47 43z" />
    <glyph glyph-name="shaddafathaarabic" unicode="&#x64e;&#x651;" arabic-form="isolated" 
d="M223 885l-154 -37c-19 -7 -32 -19 -39 -37c91 19 139 29 146 30c29 7 44 22 47 44zM235 741l-16 76l-32 -6l15 -68c1 -3 1 -6 1 -9c0 -9 -5 -14 -14 -14c-17 0 -27 10 -31 30l-11 53l-34 -8l11 -52c1 -5 2 -9 2 -12c0 -20 -13 -30 -24 -30c-7 0 -12 6 -14 18l-15 68
l-32 -7l16 -77c5 -25 20 -38 43 -38c29 0 47 21 48 54c13 -23 27 -34 44 -34c31 0 46 18 46 37c0 5 -1 11 -3 19z" />
    <glyph glyph-name="shaddadammaarabicX" unicode="&#x64f;&#x651;" arabic-form="isolated" 
d="M185 916c0 25 -17 56 -52 56c-31 0 -47 -25 -47 -50c0 -20 9 -38 27 -53c-15 -15 -66 -30 -97 -30l14 -23c105 0 155 63 155 100zM226 747l-16 76l-32 -7l15 -67c1 -4 1 -7 1 -9c0 -10 -5 -15 -14 -15c-16 0 -28 10 -32 30l-11 53l-32 -8l11 -51c1 -5 1 -9 1 -12
c0 -21 -15 -30 -24 -30c-7 0 -12 6 -15 17l-14 68l-32 -6l16 -77c5 -25 19 -38 42 -38c31 0 47 20 48 54c13 -23 28 -34 45 -34c31 0 46 16 46 36c0 5 -1 12 -3 20zM135 948c15 0 26 -13 26 -26c0 -15 -10 -28 -30 -40c-14 9 -21 22 -21 40c0 17 8 26 25 26z" />
    <glyph glyph-name="lamalefhamzaaboveisolatedarabi" unicode="&#xfedf;&#xfe84;" horiz-adv-x="580" arabic-form="isolated" 
d="M546 645h-109v-413c0 -45 -9 -77 -28 -96c-15 -15 -37 -22 -68 -22l-125 460h-118l126 -460h-153v-114h299c108 0 176 62 176 157v488zM244 622v46h-81c-12 7 -18 20 -18 37c0 19 13 38 34 38c15 0 25 -7 28 -22l36 19c-14 29 -35 44 -63 44c-43 0 -78 -34 -78 -81
c0 -5 3 -16 9 -35h-40v-46h173z" />
    <glyph glyph-name="lamalefmaddaabovefinalarabic" unicode="&#xfee0;&#xfe82;" horiz-adv-x="678" arabic-form="final" 
d="M697 0v114h-155c3 14 4 28 4 43v488h-109v-413c0 -45 -9 -77 -28 -96c-15 -15 -37 -22 -68 -22l-125 460h-118l126 -460h-153v-114h626zM265 662l-9 35c-15 -19 -31 -28 -46 -28c-11 0 -28 8 -53 25s-43 25 -54 25c-18 0 -35 -14 -51 -42l9 -34c13 18 27 27 42 27
s35 -8 58 -25s40 -25 50 -25c18 0 36 14 54 42z" />
    <glyph glyph-name="shaddadammatanarabic" unicode="&#x64c;&#x651;" arabic-form="isolated" 
d="M173 925c0 25 -16 56 -52 56c-29 0 -46 -25 -46 -50c0 -20 9 -38 27 -54c-13 -12 -49 -24 -70 -24c12 13 18 28 18 45c0 29 -13 44 -38 44c-20 0 -34 -9 -41 -31c9 7 19 11 27 11c18 0 28 -12 28 -29c0 -21 -7 -36 -21 -45c5 -10 10 -18 13 -23c107 0 155 63 155 100z
M207 752l-17 78l-32 -8l14 -67c1 -4 1 -7 1 -9c0 -10 -4 -15 -13 -15c-16 0 -28 10 -32 30l-11 53l-32 -8l11 -52c1 -4 1 -8 1 -12c0 -20 -15 -30 -24 -30c-7 0 -12 6 -15 18l-15 68l-31 -6l16 -78c5 -25 19 -38 42 -38c30 0 47 21 48 54c13 -22 27 -33 44 -33
c31 0 46 16 46 36c0 5 0 12 -1 19zM124 957c13 0 26 -13 26 -26c0 -15 -10 -28 -30 -40c-14 9 -21 22 -21 40c0 17 8 26 25 26z" />
    <glyph glyph-name="lamalefisolatedarabic" unicode="&#xfedf;&#xfe8e;" horiz-adv-x="580" arabic-form="isolated" 
d="M546 645h-109v-413c0 -45 -9 -77 -28 -96c-15 -15 -37 -22 -68 -22l-125 460h-118l126 -460h-153v-114h299c108 0 176 62 176 157v488z" />
    <glyph glyph-name="lamaleffinalarabic" unicode="&#xfee0;&#xfe8e;" horiz-adv-x="678" arabic-form="final" 
d="M698 0v114h-156c3 14 4 28 4 43v488h-109v-413c0 -45 -9 -77 -28 -96c-15 -15 -37 -22 -68 -22l-125 460h-118l126 -460h-153v-114h627z" />
    <glyph glyph-name="lamalefhamzaabovefinalarabicX" unicode="&#xfee0;&#xfe84;" horiz-adv-x="678" arabic-form="final" 
d="M697 0v114h-155c3 14 4 28 4 43v488h-109v-413c0 -45 -9 -77 -28 -96c-15 -15 -37 -22 -68 -22l-125 460h-118l126 -460h-153v-114h626zM244 622v46h-81c-12 7 -18 20 -18 37c0 19 13 38 34 38c15 0 25 -7 28 -22l36 19c-14 29 -35 44 -63 44c-43 0 -78 -34 -78 -81
c0 -5 3 -16 9 -35h-40v-46h173z" />
    <glyph glyph-name="lamalefhamzabelowisolatedarabi" unicode="&#xfedf;&#xfe88;" horiz-adv-x="580" arabic-form="isolated" 
d="M546 645h-109v-413c0 -45 -9 -77 -28 -96c-15 -15 -37 -22 -68 -22l-125 460h-118l126 -460h-153v-114h299c108 0 176 62 176 157v488zM250 -205v46h-81c-12 7 -18 20 -18 38c0 20 14 39 34 39c15 0 25 -7 28 -22l36 17c-14 31 -35 46 -63 46c-43 0 -78 -36 -78 -83
c0 -4 3 -16 9 -35h-40v-46h173z" />
    <glyph glyph-name="lamalefhamzabelowfinalarabicX" unicode="&#xfee0;&#xfe88;" horiz-adv-x="678" arabic-form="final" 
d="M697 0v114h-155c3 14 4 28 4 43v488h-109v-413c0 -45 -9 -77 -28 -96c-15 -15 -37 -22 -68 -22l-125 460h-118l126 -460h-153v-114h626zM250 -205v46h-81c-12 7 -18 20 -18 38c0 20 14 39 34 39c15 0 25 -7 28 -22l36 17c-14 31 -35 46 -63 46c-43 0 -78 -36 -78 -83
c0 -4 3 -16 9 -35h-40v-46h173z" />
    <glyph glyph-name="lamalefmaddaaboveisolatedarabi" unicode="&#xfedf;&#xfe82;" horiz-adv-x="580" arabic-form="isolated" 
d="M546 645h-109v-413c0 -45 -9 -77 -28 -96c-15 -15 -37 -22 -68 -22l-125 460h-118l126 -460h-153v-114h299c108 0 176 62 176 157v488zM265 662l-9 35c-15 -19 -31 -28 -46 -28c-11 0 -28 8 -53 25s-43 25 -54 25c-18 0 -35 -14 -51 -42l9 -34c13 18 27 27 42 27
s35 -8 58 -25s40 -25 50 -25c18 0 36 14 54 42z" />
    <glyph glyph-name="alefmaddaabovearabic" unicode="&#x627;&#x653;" horiz-adv-x="214" 
d="M182 0v646h-111v-646h111zM226 731l-9 35c-15 -19 -31 -28 -46 -28c-11 0 -28 8 -53 25s-43 25 -54 25c-18 0 -35 -14 -51 -42l9 -34c13 18 27 27 42 27s35 -8 58 -25s40 -25 50 -25c18 0 36 14 54 42z" />
    <glyph glyph-name="alefhamzaabovearabic" unicode="&#x627;&#x654;" horiz-adv-x="214" 
d="M182 0v646h-111v-646h111zM210 697v46h-81c-12 7 -18 20 -18 37c0 19 13 38 34 38c15 0 25 -7 28 -22l36 19c-14 29 -35 44 -63 44c-43 0 -78 -34 -78 -81c0 -5 3 -16 9 -35h-40v-46h173z" />
    <glyph glyph-name="wawhamzaabovearabic" unicode="&#x648;&#x654;" horiz-adv-x="525" 
d="M493 14v211c0 132 -84 230 -216 230c-126 0 -215 -92 -215 -227c0 -133 86 -228 215 -228c51 0 87 17 106 51c-2 -78 -37 -125 -107 -127v-89c145 0 217 60 217 179zM378 223c0 -66 -41 -122 -101 -122c-61 0 -103 57 -103 127c0 68 39 125 98 125c64 0 106 -52 106 -130
zM376 511v63h-96c-12 5 -18 17 -18 35c0 25 10 38 29 38c13 0 22 -9 28 -26l56 26c-17 39 -45 59 -84 59c-53 0 -94 -43 -94 -99c0 -10 2 -21 5 -33h-48v-63h222z" />
    <glyph glyph-name="alefhamzabelowarabic" unicode="&#x627;&#x655;" horiz-adv-x="214" 
d="M182 0v646h-111v-646h111zM214 -205v46h-81c-12 7 -18 20 -18 38c0 20 14 39 34 39c15 0 25 -7 28 -22l36 17c-14 31 -35 46 -63 46c-43 0 -78 -36 -78 -83c0 -4 3 -16 9 -35h-40v-46h173z" />
    <glyph glyph-name="yehhamzaabovearabic" unicode="&#x64a;&#x654;" horiz-adv-x="759" 
d="M727 176v107h-247c19 45 47 77 82 94c29 14 71 21 126 21v104c-215 0 -337 -116 -337 -328h264c-12 -155 -90 -233 -235 -233c-76 0 -135 23 -176 70c-40 44 -60 103 -60 177v99h-112v-111c0 -97 33 -179 99 -244s148 -98 245 -98h7c97 0 178 33 244 98
c67 65 100 147 100 244zM282 357v67h-126c-9 11 -14 25 -14 44c0 39 15 58 45 58c21 0 35 -11 42 -32l47 32c-17 39 -48 59 -93 59c-61 0 -106 -49 -106 -112c0 -17 3 -34 10 -49h-54v-67h249z" />
    <glyph glyph-name="allahisolated" unicode="&#xfedf;&#xfee0;&#xfeea;" horiz-adv-x="1223" arabic-form="isolated" 
d="M872 808h-33v-69c0 -14 -5 -21 -14 -21c-18 0 -28 15 -28 37v53h-33v-53c0 -21 -9 -37 -28 -37c-9 0 -13 7 -14 21v69h-33v-78c0 -31 15 -47 46 -47c23 0 39 14 47 43c8 -27 23 -43 46 -43c29 0 44 14 44 47v78zM1190 181v464h-111v-426c0 -86 -17 -105 -75 -105h-180
c17 19 25 57 25 116v405h-111v-411c0 -85 -23 -110 -79 -110h-61c-75 0 -112 42 -112 120v317h-247c-128 0 -207 -93 -207 -243c0 -139 79 -235 207 -235c50 0 93 25 128 75c23 -89 94 -148 181 -148h474c112 0 168 60 168 181zM370 319c0 -85 -44 -153 -117 -153
c-67 0 -110 66 -110 143c0 93 48 155 126 155h101v-145z" />
    <glyph glyph-name="alefwithfathatanisolated" unicode="&#x627;&#x64b;" horiz-adv-x="214" arabic-form="isolated" 
d="M182 0v646h-111v-646h111zM238 817l-155 -36c-20 -7 -33 -20 -39 -38c91 19 139 29 146 31c29 7 45 22 48 43zM226 755l-155 -36c-20 -7 -33 -20 -39 -38c91 19 139 29 146 30c29 7 45 22 48 44z" />
    <glyph glyph-name="alefwithfathatanfinal" unicode="&#xfe8e;&#x64b;" horiz-adv-x="346" arabic-form="final" 
d="M248 817l-155 -36c-20 -7 -33 -20 -39 -38l10 2c84 18 129 27 136 29c29 7 45 22 48 43zM236 755l-155 -36c-20 -7 -33 -20 -39 -38c91 19 139 29 146 30c29 7 45 22 48 44zM366 0v114h-66c-42 0 -71 6 -86 17c-21 15 -32 47 -32 96v418h-111v-463c0 -55 13 -98 40 -130
c29 -35 70 -52 124 -52h131z" />
    <glyph glyph-name="behinitialarabic" unicode="&#x628;" horiz-adv-x="301" arabic-form="initial" 
d="M267 181v273h-111v-235c0 -36 -3 -60 -8 -72c-11 -22 -34 -33 -71 -33h-85v-114h108c111 0 167 60 167 181zM266 -219v112h-109v-112h109z" />
    <glyph glyph-name="tehinitialarabic" unicode="&#x62a;" horiz-adv-x="308" arabic-form="initial" 
d="M276 181v273h-112v-235c0 -36 -3 -60 -8 -72c-11 -22 -34 -33 -71 -33h-94v-114h118c111 0 167 60 167 181zM84 546v111h-110v-111h110zM273 546v111h-110v-111h110z" />
    <glyph glyph-name="thehinitialarabic" unicode="&#x62b;" horiz-adv-x="308" arabic-form="initial" 
d="M276 181v273h-112v-235c0 -37 -3 -61 -8 -72c-11 -22 -34 -33 -71 -33h-98v-114h122c111 0 167 60 167 181zM185 690v99h-108v-99h108zM273 546v99h-108v-99h108zM100 546v99h-108v-99h108z" />
    <glyph glyph-name="jeeminitialarabic" unicode="&#x62c;" horiz-adv-x="715" arabic-form="initial" 
d="M402 -220v112h-110v-112h110zM683 70c0 157 -47 266 -142 329c-54 37 -118 55 -192 55c-44 0 -88 -9 -132 -28c-41 -18 -76 -42 -107 -71c25 -38 43 -67 54 -88c24 27 54 48 90 63c31 13 59 19 84 19c73 0 131 -25 172 -76c35 -44 52 -97 52 -159h-583v-114h704v70z" />
    <glyph glyph-name="hahinitialarabic" unicode="&#x62d;" horiz-adv-x="715" arabic-form="initial" 
d="M683 70c0 157 -47 266 -142 329c-54 37 -118 55 -192 55c-44 0 -88 -9 -132 -28c-41 -18 -76 -42 -107 -71c25 -38 43 -67 54 -88c24 27 54 48 90 63c31 13 59 19 84 19c73 0 131 -25 172 -76c35 -44 52 -97 52 -159h-583v-114h704v70z" />
    <glyph glyph-name="khahinitialarabic" unicode="&#x62e;" horiz-adv-x="715" arabic-form="initial" 
d="M683 70c0 157 -47 266 -142 329c-54 37 -118 55 -192 55c-44 0 -88 -9 -132 -28c-41 -18 -76 -42 -107 -71c25 -38 43 -67 54 -88c24 27 54 48 90 63c31 13 59 19 84 19c73 0 131 -25 172 -76c35 -44 52 -97 52 -159h-583v-114h704v70zM402 548v111h-110v-111h110z" />
    <glyph glyph-name="seeninitialarabic" unicode="&#x633;" horiz-adv-x="873" arabic-form="initial" 
d="M-13 114v-114h654c114 0 194 94 194 238v216h-113v-230c0 -73 -28 -110 -85 -110h-109c15 16 23 57 23 122v218h-113v-229c0 -74 -28 -111 -85 -111h-104v6c12 19 18 57 18 116v218h-113v-222c0 -79 -28 -118 -85 -118h-82z" />
    <glyph glyph-name="sheeninitialarabic" unicode="&#x634;" horiz-adv-x="873" arabic-form="initial" 
d="M-13 114v-114h654c114 0 194 94 194 238v216h-113v-230c0 -73 -28 -110 -85 -110h-109c15 16 23 57 23 122v218h-113v-229c0 -74 -28 -111 -85 -111h-104v6c12 19 18 57 18 116v218h-113v-222c0 -79 -28 -118 -85 -118h-82zM439 703h110v112h-110v-112zM533 546h109v111
h-109v-111zM344 546h109v111h-109v-111z" />
    <glyph glyph-name="tahinitialarabic" unicode="&#x637;" horiz-adv-x="850" arabic-form="initial" 
d="M813 0c3 37 5 71 5 104c0 234 -86 352 -259 352c-105 0 -201 -54 -293 -173l12 362h-110v-531h-184v-114h829zM703 114h-448c68 142 181 242 294 242c97 0 154 -83 154 -210v-32z" />
    <glyph glyph-name="zahinitialarabic" unicode="&#x638;" horiz-adv-x="850" arabic-form="initial" 
d="M813 0c3 37 5 71 5 104c0 234 -86 352 -259 352c-105 0 -201 -54 -293 -173l12 362h-110v-531h-184v-114h829zM703 114h-448c68 142 181 242 294 242c97 0 154 -83 154 -210v-32zM591 546v111h-110v-111h110z" />
    <glyph glyph-name="aininitialarabic" unicode="&#x639;" horiz-adv-x="576" arabic-form="initial" 
d="M544 0v114h-282c-24 27 -36 62 -36 107c0 39 9 71 27 97c20 29 48 44 85 44c53 0 88 -26 105 -77l96 46c-33 81 -108 129 -196 129c-67 0 -123 -23 -166 -70s-64 -104 -64 -171c0 -37 7 -72 22 -105h-145v-114h554z" />
    <glyph glyph-name="ghaininitialarabic" unicode="&#x63a;" horiz-adv-x="576" arabic-form="initial" 
d="M544 0v114h-282c-24 27 -36 62 -36 107c0 39 9 71 27 97c20 29 48 44 85 44c53 0 88 -26 105 -77l96 46c-33 81 -108 129 -196 129c-67 0 -123 -23 -166 -70s-64 -104 -64 -171c0 -37 7 -72 22 -105h-145v-114h554zM395 548v111h-110v-111h110z" />
    <glyph glyph-name="fehinitialarabic" unicode="&#x641;" horiz-adv-x="599" arabic-form="initial" 
d="M567 230c0 131 -91 234 -224 234s-226 -95 -226 -231c0 -43 10 -83 29 -119h-159v-114h356c134 0 224 98 224 230zM452 230c0 -74 -42 -127 -107 -127c-67 0 -113 59 -113 131c0 78 43 128 107 128c67 0 113 -56 113 -132zM397 548v111h-109v-111h109z" />
    <glyph glyph-name="qafinitialarabic" unicode="&#x642;" horiz-adv-x="599" arabic-form="initial" 
d="M492 549v111h-109v-111h109zM302 549v111h-109v-111h109zM567 230c0 131 -91 234 -224 234s-226 -95 -226 -231c0 -43 10 -83 29 -119h-159v-114h356c134 0 224 98 224 230zM452 230c0 -74 -42 -127 -107 -127c-67 0 -113 59 -113 131c0 78 43 128 107 128
c67 0 113 -56 113 -132z" />
    <glyph glyph-name="kafinitialarabic" unicode="&#x643;" horiz-adv-x="684" arabic-form="initial" 
d="M652 70c0 157 -47 266 -142 329c-54 37 -118 55 -192 55h-49l135 191h-133l-197 -296h231c73 0 131 -25 173 -76c36 -44 54 -97 54 -159h-549v-114h669v70z" />
    <glyph glyph-name="laminitialarabic" unicode="&#x644;" horiz-adv-x="300" arabic-form="initial" 
d="M268 181v464h-112v-426c0 -36 -3 -60 -8 -72c-11 -22 -34 -33 -71 -33h-95v-114h118c112 0 168 60 168 181z" />
    <glyph glyph-name="meeminitialarabic" unicode="&#x645;" horiz-adv-x="601" arabic-form="initial" 
d="M568 142c0 131 -91 234 -224 234s-226 -96 -226 -230c0 -9 1 -18 2 -27l1 -5h-138v-114h180c43 -59 104 -89 181 -89c133 0 224 98 224 231zM453 142c0 -76 -44 -127 -106 -127c-67 0 -114 57 -114 132s45 128 108 128c66 0 112 -57 112 -133z" />
    <glyph glyph-name="nooninitialarabic" unicode="&#x646;" horiz-adv-x="301" arabic-form="initial" 
d="M268 181v273h-112v-235c0 -36 -3 -60 -8 -72c-11 -22 -34 -33 -71 -33h-95v-114h118c112 0 168 60 168 181zM266 546v111h-109v-111h109z" />
    <glyph glyph-name="hehinitialarabic" unicode="&#x647;" horiz-adv-x="751" arabic-form="initial" 
d="M708 0c7 40 10 80 10 119c0 250 -131 436 -345 479l-13 -107c145 -30 248 -181 248 -350c0 -9 0 -18 -1 -27h-132c17 41 26 75 26 104c0 120 -81 194 -198 194c-119 0 -198 -76 -198 -194c0 -29 9 -63 26 -104h-147v-114h724zM395 218c0 -61 -38 -107 -92 -107
s-92 46 -92 107c0 60 33 105 92 105s92 -45 92 -105z" />
    <glyph glyph-name="yehinitialarabic" unicode="&#x64a;" horiz-adv-x="308" arabic-form="initial" 
d="M276 181v273h-112v-235c0 -36 -3 -60 -8 -72c-11 -22 -34 -33 -71 -33h-94v-114h118c111 0 167 60 167 181zM84 -219v112h-110v-112h110zM273 -219v112h-110v-112h110z" />
    <glyph glyph-name="yehhamzaabovemedialarabic" unicode="&#x626;" horiz-adv-x="431" arabic-form="medial" 
d="M278 455l1 67h-126c-10 11 -15 25 -15 44c0 37 15 56 45 56c22 0 36 -10 43 -30l47 31c-17 40 -48 60 -92 60c-63 0 -107 -49 -107 -112c0 -18 3 -34 9 -49h-53v-67h248zM446 0v114h-192c16 19 24 57 24 116v167h-111v-173c0 -35 -4 -61 -12 -76c-12 -23 -34 -34 -67 -34
h-104v-114h462z" />
    <glyph glyph-name="behmedialarabic" unicode="&#x628;" horiz-adv-x="431" arabic-form="medial" 
d="M277 -220v112h-110v-112h110zM446 0v114h-192c16 19 24 57 24 116v224h-111v-230c0 -35 -4 -61 -12 -76c-12 -23 -34 -34 -67 -34h-104v-114h462z" />
    <glyph glyph-name="tehmedialarabic" unicode="&#x62a;" horiz-adv-x="431" arabic-form="medial" 
d="M88 547v111h-110v-111h110zM278 547v111h-110v-111h110zM446 0v114h-192c16 19 24 57 24 116v224h-111v-230c0 -35 -4 -61 -12 -76c-12 -23 -34 -34 -67 -34h-104v-114h462z" />
    <glyph glyph-name="thehmedialarabic" unicode="&#x62b;" horiz-adv-x="431" arabic-form="medial" 
d="M446 0v114h-192c16 19 24 57 24 116v224h-111v-230c0 -35 -4 -61 -12 -76c-12 -23 -34 -34 -67 -34h-104v-114h462zM183 703v112h-109v-112h109zM277 546v111h-110v-111h110zM87 546v111h-110v-111h110z" />
    <glyph glyph-name="jeemmedialarabic" unicode="&#x62c;" horiz-adv-x="774" arabic-form="medial" 
d="M402 -219v112h-110v-112h110zM787 0v114h-106c-9 139 -59 236 -150 292c-52 32 -113 48 -182 48c-44 0 -88 -9 -132 -28c-41 -18 -76 -42 -107 -71c25 -38 43 -67 54 -88c24 27 54 48 90 63c31 13 59 19 84 19c73 0 131 -25 172 -76c35 -44 52 -97 52 -159h-578v-114h803
z" />
    <glyph glyph-name="hahmedialarabic" unicode="&#x62d;" horiz-adv-x="774" arabic-form="medial" 
d="M787 0v114h-106c-9 139 -59 236 -150 292c-52 32 -113 48 -182 48c-44 0 -88 -9 -132 -28c-41 -18 -76 -42 -107 -71c25 -38 43 -67 54 -88c24 27 54 48 90 63c31 13 59 19 84 19c73 0 131 -25 172 -76c35 -44 52 -97 52 -159h-578v-114h803z" />
    <glyph glyph-name="khahmedialarabic" unicode="&#x62e;" horiz-adv-x="774" arabic-form="medial" 
d="M787 0v114h-106c-9 139 -59 236 -150 292c-52 32 -113 48 -182 48c-44 0 -88 -9 -132 -28c-41 -18 -76 -42 -107 -71c25 -38 43 -67 54 -88c24 27 54 48 90 63c31 13 59 19 84 19c73 0 131 -25 172 -76c35 -44 52 -97 52 -159h-578v-114h803zM402 548v111h-110v-111h110z
" />
    <glyph glyph-name="seenmedialarabic" unicode="&#x633;" horiz-adv-x="976" arabic-form="medial" 
d="M-22 0h1014v114h-171c17 36 25 77 25 124v216h-113v-230c0 -73 -28 -110 -85 -110h-109c15 16 23 57 23 122v218h-113v-229c0 -74 -28 -111 -85 -111h-104v6c12 19 18 57 18 116v218h-113v-222c0 -79 -28 -118 -85 -118h-102v-114z" />
    <glyph glyph-name="sheenmedialarabic" unicode="&#x634;" horiz-adv-x="976" arabic-form="medial" 
d="M-22 0h1014v114h-171c17 36 25 77 25 124v216h-113v-230c0 -73 -28 -110 -85 -110h-109c15 16 23 57 23 122v218h-113v-229c0 -74 -28 -111 -85 -111h-104v6c12 19 18 57 18 116v218h-113v-222c0 -79 -28 -118 -85 -118h-102v-114zM450 703h110v112h-110v-112zM544 546
h109v111h-109v-111zM355 546h109v111h-109v-111z" />
    <glyph glyph-name="sadmedialarabic" unicode="&#x635;" horiz-adv-x="939" arabic-form="medial" 
d="M949 0v114h-118c-3 227 -89 342 -258 342c-108 0 -218 -68 -307 -189v139h-112v-174c0 -79 -28 -118 -85 -118h-112v-114h992zM715 114h-446c62 138 181 242 293 242c95 0 155 -81 155 -210z" />
    <glyph glyph-name="dadmedialarabic" unicode="&#x636;" horiz-adv-x="939" arabic-form="medial" 
d="M949 0v114h-118c-3 227 -89 342 -258 342c-108 0 -218 -68 -307 -189v139h-112v-174c0 -79 -28 -118 -85 -118h-112v-114h992zM715 114h-446c62 138 181 242 293 242c95 0 155 -81 155 -210zM614 546v111h-110v-111h110z" />
    <glyph glyph-name="tahmedialarabic" unicode="&#x637;" horiz-adv-x="935" arabic-form="medial" 
d="M946 0v114h-113c-3 227 -90 342 -259 342c-106 0 -202 -54 -295 -173l14 362h-110v-531h-194v-114h957zM717 114h-447c65 140 182 242 294 242c96 0 154 -82 154 -210c0 -11 0 -21 -1 -32z" />
    <glyph glyph-name="zahmedialarabic" unicode="&#x638;" horiz-adv-x="935" arabic-form="medial" 
d="M956 0v114h-123c-3 227 -90 342 -259 342c-106 0 -202 -54 -295 -173l14 362h-110v-531h-204v-114h977zM717 114h-447c65 140 182 242 294 242c96 0 154 -82 154 -210c0 -11 0 -21 -1 -32zM611 546v111h-109v-111h109z" />
    <glyph glyph-name="ainmedialarabic" unicode="&#x639;" horiz-adv-x="724" arabic-form="medial" 
d="M738 0v114h-188c-24 0 -39 1 -44 2c-13 3 -26 11 -40 25c36 25 74 62 115 112c38 47 62 84 71 111c-80 69 -175 104 -285 104c-93 0 -184 -27 -271 -82v-106c37 -9 77 -27 118 -54c41 -26 70 -51 85 -74c-24 -16 -48 -26 -72 -31c-19 -5 -45 -7 -78 -7h-166v-114h168
c75 0 148 24 221 72c17 -19 38 -35 64 -48c31 -16 61 -24 89 -24h213zM515 331c-14 -21 -33 -43 -56 -66c-26 -25 -50 -44 -73 -55c-50 58 -107 98 -170 120c51 27 103 41 154 41s100 -13 145 -40z" />
    <glyph glyph-name="ghainmedialarabic" unicode="&#x63a;" horiz-adv-x="724" arabic-form="medial" 
d="M735 0v114h-185c-24 0 -39 1 -44 2c-13 3 -26 11 -40 25c36 25 74 62 115 112c38 47 62 84 71 111c-80 69 -175 104 -285 104c-93 0 -184 -27 -271 -82v-106c37 -9 77 -27 118 -54c41 -26 70 -51 85 -74c-24 -16 -48 -26 -72 -31c-19 -5 -45 -7 -78 -7h-166v-114h168
c75 0 148 24 221 72c17 -19 38 -35 64 -48c31 -16 61 -24 89 -24h210zM515 331c-14 -21 -33 -43 -56 -66c-26 -25 -50 -44 -73 -55c-50 58 -107 98 -170 120c51 27 103 41 154 41s100 -13 145 -40zM423 548v111h-110v-111h110z" />
    <glyph glyph-name="fehmedialarabic" unicode="&#x641;" horiz-adv-x="642" arabic-form="medial" 
d="M377 622v112h-110v-112h110zM661 0v114h-104c-51 0 -82 4 -93 11c31 24 56 55 73 94c16 34 24 69 24 106c0 142 -120 219 -233 219c-101 0 -183 -59 -220 -154c-8 -20 -12 -43 -12 -69c0 -36 8 -71 23 -104c17 -37 42 -68 74 -92c-12 -7 -43 -11 -93 -11h-117v-114h123
c95 0 169 18 221 55c53 -37 127 -55 223 -55h111zM389 203c-17 -13 -38 -25 -61 -37c-23 11 -44 24 -62 37c-44 32 -66 75 -66 128c0 35 11 64 32 87c23 25 55 38 96 38s73 -13 96 -38c21 -23 31 -52 31 -87c0 -54 -22 -97 -66 -128z" />
    <glyph glyph-name="qafmedialarabic" unicode="&#x642;" horiz-adv-x="642" arabic-form="medial" 
d="M286 622v112h-110v-112h110zM476 622v112h-110v-112h110zM661 0v114h-104c-51 0 -82 4 -93 11c31 24 56 55 73 94c16 34 24 69 24 106c0 142 -120 219 -233 219c-101 0 -183 -59 -220 -154c-8 -20 -12 -43 -12 -69c0 -36 8 -71 23 -104c17 -37 42 -68 74 -92
c-12 -7 -43 -11 -93 -11h-117v-114h123c95 0 169 18 221 55c53 -37 127 -55 223 -55h111zM389 203c-17 -13 -38 -25 -61 -37c-23 11 -44 24 -62 37c-44 32 -66 75 -66 128c0 35 11 64 32 87c23 25 55 38 96 38s73 -13 96 -38c21 -23 31 -52 31 -87c0 -54 -22 -97 -66 -128z
" />
    <glyph glyph-name="kafmedialarabic" unicode="&#x643;" horiz-adv-x="757" arabic-form="medial" 
d="M771 0v114h-120c-9 139 -59 236 -150 292c-53 32 -114 48 -183 48h-49l135 191h-133l-197 -296h231c73 0 131 -25 173 -76c36 -44 54 -97 54 -159h-549v-114h788z" />
    <glyph glyph-name="lammedialarabic" unicode="&#x644;" horiz-adv-x="431" arabic-form="medial" 
d="M442 0v114h-188c16 19 24 57 24 116v415h-111v-421c0 -35 -4 -61 -12 -76c-12 -23 -34 -34 -67 -34h-104v-114h458z" />
    <glyph glyph-name="meemmedialarabic" unicode="&#x645;" horiz-adv-x="621" arabic-form="medial" 
d="M638 0v114h-100v29c0 67 -21 122 -62 167s-95 67 -162 67s-121 -22 -163 -65c-41 -43 -62 -98 -62 -165c0 -11 0 -22 1 -33h-108v-114h153c43 -58 102 -87 179 -87c78 0 138 29 181 87h143zM423 144c0 -36 -9 -66 -26 -89c-19 -25 -46 -38 -80 -38
c-69 0 -113 59 -113 131c0 35 9 65 26 88c20 27 47 40 81 40c35 0 64 -14 85 -41c18 -25 27 -56 27 -91z" />
    <glyph glyph-name="noonmedialarabic" unicode="&#x646;" horiz-adv-x="431" arabic-form="medial" 
d="M446 0v114h-192c16 19 24 57 24 116v224h-111v-230c0 -35 -4 -61 -12 -76c-12 -23 -34 -34 -67 -34h-104v-114h462zM278 546v111h-110v-111h110z" />
    <glyph glyph-name="hehmedialarabic" unicode="&#x647;" horiz-adv-x="789" arabic-form="medial" 
d="M800 0v114h-89c0 252 -128 440 -345 484l-14 -107c145 -30 248 -178 248 -346c0 -10 0 -20 -1 -31h-132c17 41 26 76 26 104c0 120 -80 194 -197 194s-198 -74 -198 -194c0 -29 9 -63 26 -104h-138v-114h814zM388 218c0 -60 -39 -107 -92 -107c-54 0 -92 46 -92 107
c0 60 33 105 92 105c55 0 92 -42 92 -105z" />
    <glyph glyph-name="yehmedialarabic" unicode="&#x64a;" horiz-adv-x="432" arabic-form="medial" 
d="M443 0v114h-188c17 19 25 57 25 116v224h-111v-230c0 -35 -4 -61 -12 -76c-12 -23 -35 -34 -68 -34h-107v-114h461zM276 -219v112h-110v-112h110zM87 -219v112h-110v-112h110z" />
    <glyph glyph-name="alefmaddaabovefinalarabic" unicode="&#x622;" horiz-adv-x="346" arabic-form="final" 
d="M226 731l-9 35c-15 -19 -31 -28 -46 -28c-11 0 -28 8 -53 25s-43 25 -54 25c-18 0 -35 -14 -51 -42l9 -34c13 18 27 27 42 27s35 -8 58 -25s40 -25 50 -25c18 0 36 14 54 42zM366 0v114h-66c-42 0 -71 6 -86 17c-21 15 -32 47 -32 96v418h-111v-463c0 -55 13 -98 40 -130
c29 -35 70 -52 124 -52h131z" />
    <glyph glyph-name="alefhamzaabovefinalarabic" unicode="&#x623;" horiz-adv-x="346" arabic-form="final" 
d="M210 697v46h-81c-12 7 -18 20 -18 37c0 19 13 38 34 38c15 0 25 -7 28 -22l36 19c-14 29 -35 44 -63 44c-43 0 -78 -34 -78 -81c0 -5 3 -16 9 -35h-40v-46h173zM366 0v114h-66c-42 0 -71 6 -86 17c-21 15 -32 47 -32 96v418h-111v-463c0 -55 13 -98 40 -130
c29 -35 70 -52 124 -52h131z" />
    <glyph glyph-name="wawhamzaabovefinalarabic" unicode="&#x624;" horiz-adv-x="621" arabic-form="final" 
d="M376 511v63h-96c-12 5 -18 17 -18 35c0 25 10 38 29 38c13 0 22 -9 28 -26l56 26c-17 39 -45 59 -84 59c-53 0 -94 -43 -94 -99c0 -10 2 -21 5 -33h-48v-63h222zM631 0v114h-137v116c0 131 -86 225 -208 225c-127 0 -224 -90 -224 -222s98 -233 219 -233h107
c-16 -53 -53 -77 -111 -77v-88c130 0 203 55 218 165h136zM382 114h-99c-60 0 -107 56 -107 125c0 67 42 113 108 113c58 0 92 -42 98 -101v-137z" />
    <glyph glyph-name="alefhamzabelowfinalarabic" unicode="&#x625;" horiz-adv-x="346" arabic-form="final" 
d="M250 -205v46h-81c-12 7 -18 20 -18 38c0 20 14 39 34 39c15 0 25 -7 28 -22l36 17c-14 31 -35 46 -63 46c-43 0 -78 -36 -78 -83c0 -4 3 -16 9 -35h-40v-46h173zM366 0v114h-66c-42 0 -71 6 -86 17c-21 15 -32 47 -32 96v418h-111v-463c0 -55 13 -98 40 -130
c29 -35 70 -52 124 -52h131z" />
    <glyph glyph-name="yehhamzaabovefinalarabic" unicode="&#x626;" horiz-adv-x="896" arabic-form="final" 
d="M281 357v67h-126c-9 11 -14 25 -14 44c0 39 15 58 45 58c21 0 35 -11 42 -32l47 32c-17 39 -48 59 -92 59c-63 0 -106 -49 -106 -112c0 -17 3 -34 9 -49h-53v-67h248zM909 114h-42c-57 0 -96 29 -137 104c-44 79 -110 119 -198 119h-44v-102c6 1 12 1 18 1
c64 0 101 -44 101 -106c0 -102 -98 -188 -228 -188c-145 0 -235 97 -235 252v99h-112v-112c0 -197 152 -347 344 -347c163 0 297 98 329 254c46 -69 81 -88 204 -88v114z" />
    <glyph glyph-name="aleffinalarabic" unicode="&#x627;" horiz-adv-x="346" arabic-form="final" 
d="M366 0v114h-66c-42 0 -71 6 -86 17c-21 15 -32 47 -32 96v418h-111v-463c0 -55 13 -98 40 -130c29 -35 70 -52 124 -52h131z" />
    <glyph glyph-name="behfinalarabic" unicode="&#x628;" horiz-adv-x="1020" arabic-form="final" 
d="M1032 0v114h-189c17 19 25 57 25 116v224h-112v-230c0 -35 -4 -61 -12 -76c-11 -23 -34 -34 -67 -34h-340c-61 0 -107 11 -137 32c-38 26 -57 72 -57 137v171h-111v-171c0 -189 106 -283 318 -283h682zM542 -219v112h-110v-112h110z" />
    <glyph glyph-name="tehmarbutafinalarabic" unicode="&#x629;" horiz-adv-x="656" arabic-form="final" 
d="M669 0v114h-71c-75 0 -112 42 -112 120v317h-247c-128 0 -207 -93 -207 -243c0 -139 79 -235 207 -235c50 0 93 25 128 75c23 -89 94 -148 181 -148h121zM370 319c0 -85 -44 -153 -117 -153c-67 0 -110 66 -110 143c0 93 48 155 126 155h101v-145zM288 632v112h-110v-112
h110zM477 632v112h-110v-112h110z" />
    <glyph glyph-name="tehfinalarabic" unicode="&#x62a;" horiz-adv-x="1020" arabic-form="final" 
d="M1032 0v114h-189c17 19 25 57 25 116v224h-112v-230c0 -35 -4 -61 -12 -76c-11 -23 -34 -34 -67 -34h-340c-61 0 -107 11 -137 32c-38 26 -57 72 -57 137v171h-111v-171c0 -189 106 -283 318 -283h682zM412 455v111h-110v-111h110zM602 455v111h-110v-111h110z" />
    <glyph glyph-name="thehfinalarabic" unicode="&#x62b;" horiz-adv-x="1020" arabic-form="final" 
d="M1034 0v114h-191c17 19 25 57 25 116v224h-112v-230c0 -35 -4 -61 -12 -76c-11 -23 -34 -34 -67 -34h-340c-61 0 -107 11 -137 32c-38 26 -57 72 -57 137v171h-111v-171c0 -189 106 -283 318 -283h684zM505 612v112h-109v-112h109zM598 455v111h-109v-111h109zM408 455
v111h-109v-111h109z" />
    <glyph glyph-name="jeemfinalarabic" unicode="&#x62c;" horiz-adv-x="689" arabic-form="final" 
d="M364 27v111h-110v-111h110zM706 0v114h-26c-35 0 -67 11 -95 34c-41 32 -65 84 -74 157c-23 193 -119 278 -288 278c-36 0 -65 -8 -86 -17v-96c14 8 40 16 78 16c98 0 156 -46 175 -157h-123c-69 0 -125 -19 -166 -58c-46 -43 -69 -106 -69 -189s28 -146 83 -190
c49 -38 115 -57 198 -57h80v117h-121c-35 0 -66 12 -91 35s-37 53 -37 90c0 84 52 137 128 137h135c9 -49 34 -94 77 -136c54 -52 119 -78 196 -78h26z" />
    <glyph glyph-name="hahfinalarabic" unicode="&#x62d;" horiz-adv-x="689" arabic-form="final" 
d="M706 0v114h-26c-35 0 -67 11 -95 34c-41 32 -65 84 -74 157c-23 193 -119 278 -288 278c-36 0 -65 -8 -86 -17v-96c14 8 40 16 78 16c98 0 156 -46 175 -157h-123c-69 0 -125 -19 -166 -58c-46 -43 -69 -106 -69 -189s28 -146 83 -190c49 -38 115 -57 198 -57h80v117
h-121c-35 0 -66 12 -91 35s-37 53 -37 90c0 84 52 137 128 137h135c9 -49 34 -94 77 -136c54 -52 119 -78 196 -78h26z" />
    <glyph glyph-name="khahfinalarabic" unicode="&#x62e;" horiz-adv-x="689" arabic-form="final" 
d="M706 0v114h-26c-35 0 -67 11 -95 34c-41 32 -65 84 -74 157c-23 193 -119 278 -288 278c-36 0 -65 -8 -86 -17v-96c14 8 40 16 78 16c98 0 156 -46 175 -157h-123c-69 0 -125 -19 -166 -58c-46 -43 -69 -106 -69 -189s28 -146 83 -190c49 -38 115 -57 198 -57h80v117
h-121c-35 0 -66 12 -91 35s-37 53 -37 90c0 84 52 137 128 137h135c9 -49 34 -94 77 -136c54 -52 119 -78 196 -78h26zM304 645v112h-109v-112h109z" />
    <glyph glyph-name="dalfinalarabic" unicode="&#x62f;" horiz-adv-x="679" arabic-form="final" 
d="M711 0v114h-174c-1 171 -68 279 -202 324c-26 9 -46 13 -60 14s-49 2 -104 2v-102c36 0 70 -2 101 -9c101 -22 152 -98 152 -229h-362v-114h649z" />
    <glyph glyph-name="thalfinalarabic" unicode="&#x630;" horiz-adv-x="679" arabic-form="final" 
d="M332 548v111h-109v-111h109zM711 0v114h-174c-1 171 -68 279 -202 324c-26 9 -46 13 -60 14s-49 2 -104 2v-102c36 0 70 -2 101 -9c101 -22 152 -98 152 -229h-362v-114h649z" />
    <glyph glyph-name="rehfinalarabic" unicode="&#x631;" horiz-adv-x="443" arabic-form="final" 
d="M465 0v114h-172v340h-112v-382c0 -96 -46 -142 -139 -142v-96c136 0 227 59 244 166h179z" />
    <glyph glyph-name="zainfinalarabic" unicode="&#x632;" horiz-adv-x="443" arabic-form="final" 
d="M465 0v114h-172v340h-112v-382c0 -96 -46 -142 -139 -142v-96c136 0 227 59 244 166h179zM292 546v111h-110v-111h110z" />
    <glyph glyph-name="seenfinalarabic" unicode="&#x633;" horiz-adv-x="1371" arabic-form="final" 
d="M1378 0v114h-171c17 36 25 77 25 124v216h-113v-230c0 -73 -28 -110 -85 -110h-109c15 16 23 57 23 122v218h-113v-229c0 -74 -28 -111 -85 -111h-91c3 20 5 41 5 62v278h-113v-265c0 -65 -16 -121 -49 -168c-39 -53 -90 -80 -153 -80c-64 0 -115 27 -154 80
c-33 47 -50 103 -50 168v265h-113v-278c0 -97 32 -178 95 -244c61 -65 135 -98 222 -98c88 0 162 34 223 102c19 20 34 41 47 64h759z" />
    <glyph glyph-name="sheenfinalarabic" unicode="&#x634;" horiz-adv-x="1371" arabic-form="final" 
d="M1378 0v114h-171c17 36 25 77 25 124v216h-113v-230c0 -73 -28 -110 -85 -110h-109c15 16 23 57 23 122v218h-113v-229c0 -74 -28 -111 -85 -111h-91c3 20 5 41 5 62v278h-113v-265c0 -65 -16 -121 -49 -168c-39 -53 -90 -80 -153 -80c-64 0 -115 27 -154 80
c-33 47 -50 103 -50 168v265h-113v-278c0 -97 32 -178 95 -244c61 -65 135 -98 222 -98c88 0 162 34 223 102c19 20 34 41 47 64h759zM946 703v112h-110v-112h110zM1039 546v111h-109v-111h109zM850 546v111h-109v-111h109z" />
    <glyph glyph-name="sadfinalarabic" unicode="&#x635;" horiz-adv-x="1338" arabic-form="final" 
d="M1345 0v114h-118c-3 227 -89 342 -258 342c-107 0 -218 -67 -305 -187v185h-113v-265c0 -141 -84 -248 -202 -248c-119 0 -204 108 -204 248v265h-113v-278c0 -188 143 -342 317 -342c110 0 209 57 270 166h726zM1111 114h-446c62 138 181 242 293 242
c106 0 153 -108 153 -242z" />
    <glyph glyph-name="dadfinalarabic" unicode="&#x636;" horiz-adv-x="1338" arabic-form="final" 
d="M1345 0v114h-118c-3 227 -89 342 -258 342c-107 0 -218 -67 -305 -187v185h-113v-265c0 -141 -84 -248 -202 -248c-119 0 -204 108 -204 248v265h-113v-278c0 -188 143 -342 317 -342c110 0 209 57 270 166h726zM1111 114h-446c62 138 181 242 293 242
c106 0 153 -108 153 -242zM1010 546v111h-110v-111h110z" />
    <glyph glyph-name="tahfinalarabic" unicode="&#x637;" horiz-adv-x="876" arabic-form="final" 
d="M32 114v-114h855v114h-113c-2 227 -88 342 -257 342c-107 0 -203 -54 -295 -173l13 362h-111v-531h-92zM213 114c62 138 181 242 293 242c96 0 155 -83 155 -210l-2 -32h-446z" />
    <glyph glyph-name="zahfinalarabic" unicode="&#x638;" horiz-adv-x="876" arabic-form="final" 
d="M887 0v114h-113c-2 227 -88 342 -257 342c-107 0 -203 -54 -295 -173l13 362h-111v-531h-92v-114h855zM659 114h-446c62 138 181 242 293 242c96 0 155 -83 155 -210c0 -9 -1 -18 -2 -29v-3zM549 546v111h-110v-111h110z" />
    <glyph glyph-name="ainfinalarabic" unicode="&#x639;" horiz-adv-x="744" arabic-form="final" 
d="M755 0v114h-27c-90 0 -154 75 -169 197h-91c-42 0 -75 1 -98 1h-15c-37 13 -69 70 -69 123c0 69 39 118 101 118c38 0 65 -18 82 -54l84 40c-34 71 -89 106 -164 106c-117 0 -206 -87 -206 -212c0 -48 12 -90 37 -125c-114 -19 -188 -111 -188 -235
c0 -150 106 -239 271 -239h171v111h-179c-96 0 -156 47 -156 125c0 87 52 131 156 131h163c30 -111 145 -201 271 -201h26z" />
    <glyph glyph-name="ghainfinalarabic" unicode="&#x63a;" horiz-adv-x="744" arabic-form="final" 
d="M443 722v111h-109v-111h109zM755 0v114h-27c-90 0 -154 75 -169 197h-91c-42 0 -75 1 -98 1h-15c-37 13 -69 70 -69 123c0 69 39 118 101 118c38 0 65 -18 82 -54l84 40c-34 71 -89 106 -164 106c-117 0 -206 -87 -206 -212c0 -48 12 -90 37 -125
c-114 -19 -188 -111 -188 -235c0 -150 106 -239 271 -239h171v111h-179c-96 0 -156 47 -156 125c0 87 52 131 156 131h163c30 -111 145 -201 271 -201h26z" />
    <glyph glyph-name="fehfinalarabic" unicode="&#x641;" horiz-adv-x="1072" arabic-form="final" 
d="M1093 0v114h-106c-51 0 -82 4 -93 11c31 24 55 55 73 94c16 34 24 69 24 106c0 25 -4 46 -13 65c-21 47 -49 84 -86 111c-39 29 -84 43 -134 43c-101 0 -183 -59 -220 -154c-8 -20 -12 -43 -12 -69c0 -36 8 -71 24 -104c17 -37 41 -68 72 -92c-11 -7 -42 -11 -93 -11
h-192c-61 0 -107 11 -137 32c-38 26 -57 72 -57 137v151h-111v-151c0 -189 106 -283 318 -283h186c95 0 169 18 222 55c51 -37 126 -55 223 -55h112zM820 203c-17 -13 -38 -25 -62 -37c-23 11 -43 24 -61 37c-44 32 -66 75 -66 128c0 35 10 64 31 87c23 25 55 38 96 38
s73 -13 96 -38c21 -23 32 -52 32 -87c0 -54 -22 -97 -66 -128zM810 622v112h-109v-112h109z" />
    <glyph glyph-name="qaffinalarabic" unicode="&#x642;" horiz-adv-x="809" arabic-form="final" 
d="M826 0v114h-128v161c0 141 -70 211 -208 211s-213 -95 -213 -232c0 -158 101 -254 272 -254c-43 -42 -105 -65 -184 -65c-138 0 -227 94 -227 239v174h-106v-186c0 -185 143 -328 336 -328c142 0 242 55 299 166h159zM594 251v-137h-45c-101 0 -158 47 -158 141
c0 92 34 147 99 147c69 0 104 -50 104 -151zM450 546v111h-110v-111h110zM640 546v111h-110v-111h110z" />
    <glyph glyph-name="kaffinalarabic" unicode="&#x643;" horiz-adv-x="1020" arabic-form="final" 
d="M1042 0v114h-199c17 19 25 57 25 116v415h-112v-421c0 -35 -4 -61 -12 -76c-11 -23 -34 -34 -67 -34h-340c-61 0 -107 11 -137 32c-38 26 -57 72 -57 137v171h-111v-171c0 -189 106 -283 318 -283h692zM579 389v67h-126c-9 11 -14 26 -14 45c0 38 15 57 45 57
c21 0 35 -11 42 -32l47 32c-17 40 -48 60 -92 60c-63 0 -108 -50 -108 -113c0 -17 4 -34 11 -49h-54v-67h249z" />
    <glyph glyph-name="lamfinalarabic" unicode="&#x644;" horiz-adv-x="799" arabic-form="final" 
d="M827 0v114h-169c4 21 6 41 6 62v469h-113v-456c0 -141 -84 -248 -202 -248c-122 0 -204 110 -204 248v85h-113v-98c0 -188 143 -342 317 -342c110 0 213 62 270 166h208z" />
    <glyph glyph-name="meemfinalarabic" unicode="&#x645;" horiz-adv-x="955" arabic-form="final" 
d="M978 0v114h-50c-84 0 -127 39 -173 197c-25 87 -108 144 -208 144h-280c-149 0 -235 -105 -235 -266v-355h112v332c0 109 48 175 123 175h82c-19 -34 -28 -73 -28 -117c0 -132 93 -234 226 -234c81 0 142 31 183 92c55 -53 121 -82 199 -82h49zM656 220
c0 -76 -45 -127 -106 -127c-67 0 -114 57 -114 132c0 74 43 128 107 128c69 0 113 -59 113 -133z" />
    <glyph glyph-name="noonfinalarabic" unicode="&#x646;" horiz-adv-x="800" arabic-form="final" 
d="M821 0v114h-163c4 21 6 41 6 62v278h-113v-265c0 -65 -16 -121 -49 -168c-39 -53 -90 -80 -153 -80c-64 0 -115 27 -154 80c-33 47 -50 103 -50 168v265h-113v-278c0 -97 32 -178 95 -244c61 -65 135 -98 222 -98c57 0 109 15 158 46c47 29 84 69 112 120h202zM406 546
v111h-110v-111h110z" />
    <glyph glyph-name="hehfinalarabic" unicode="&#x647;" horiz-adv-x="656" arabic-form="final" 
d="M669 0v114h-71c-75 0 -112 40 -112 120v318h-127c-9 -1 -49 -1 -120 -1c-128 0 -207 -93 -207 -243c0 -139 79 -235 207 -235c50 0 93 25 128 75c23 -89 94 -148 181 -148h121zM370 319c0 -85 -44 -153 -117 -153c-67 0 -110 66 -110 143c0 93 48 155 126 155h101v-145z
" />
    <glyph glyph-name="wawfinalarabic" unicode="&#x648;" horiz-adv-x="621" arabic-form="final" 
d="M631 0v114h-137v116c0 131 -86 225 -208 225c-127 0 -224 -90 -224 -222s98 -233 219 -233h107c-16 -53 -53 -77 -111 -77v-88c130 0 203 55 218 165h136zM382 114h-99c-60 0 -107 56 -107 125c0 67 42 113 108 113c58 0 92 -42 98 -101v-137z" />
    <glyph glyph-name="alefmaksurafinalarabic" unicode="&#x649;" horiz-adv-x="896" arabic-form="final" 
d="M909 114h-42c-57 0 -96 29 -137 104c-44 79 -110 119 -198 119h-44v-102c6 1 12 1 18 1c64 0 101 -44 101 -106c0 -102 -98 -188 -228 -188c-145 0 -235 97 -235 252v99h-112v-112c0 -197 152 -347 344 -347c163 0 297 98 329 254c46 -69 81 -88 204 -88v114z" />
    <glyph glyph-name="yehfinalarabic" unicode="&#x64a;" horiz-adv-x="896" arabic-form="final" 
d="M909 114h-42c-57 0 -96 29 -137 104c-44 79 -110 119 -198 119h-44v-102c6 1 12 1 18 1c64 0 101 -44 101 -106c0 -102 -98 -188 -228 -188c-145 0 -235 97 -235 252v99h-112v-112c0 -197 152 -347 344 -347c163 0 297 98 329 254c46 -69 81 -88 204 -88v114zM526 -387
v111h-110v-111h110zM337 -387v111h-110v-111h110z" />
    <glyph glyph-name="yehhamzaaboveinitialarabic" unicode="&#x626;" horiz-adv-x="302" arabic-form="initial" 
d="M268 455v67h-126c-9 11 -14 25 -14 44c0 38 15 57 45 57c21 0 35 -10 42 -31l47 31c-17 41 -48 61 -91 61c-63 0 -108 -49 -108 -112c0 -18 3 -35 10 -50h-54v-67h249zM268 181v216h-112v-178c0 -36 -3 -60 -8 -72c-11 -22 -34 -33 -71 -33h-85v-114h108
c112 0 168 60 168 181z" />
    <glyph glyph-name="dadinitialarabic" unicode="&#x636;" horiz-adv-x="869" arabic-form="initial" 
d="M824 0c3 37 5 71 5 104c0 234 -86 352 -258 352c-107 0 -218 -67 -305 -187v137h-112v-174c0 -79 -28 -118 -85 -118h-82v-114h837zM713 114h-446c62 138 181 242 293 242c95 0 155 -81 155 -210zM612 546v111h-110v-111h110z" />
    <glyph glyph-name="alefmaksurainitialarabic" unicode="&#x6cc;" horiz-adv-x="308" arabic-form="initial" 
d="M276 181v273h-112v-235c0 -36 -3 -60 -8 -72c-11 -22 -34 -33 -71 -33h-94v-114h118c111 0 167 60 167 181zM84 -219v112h-110v-112h110zM273 -219v112h-110v-112h110z" />
    <glyph glyph-name="alefmaksuramedialarabic" unicode="&#x6cc;" horiz-adv-x="432" arabic-form="medial" 
d="M276 -219v112h-110v-112h110zM87 -219v112h-110v-112h110zM446 0v114h-192c16 19 24 57 24 116v224h-111v-230c0 -35 -4 -61 -12 -76c-12 -23 -34 -34 -67 -34h-104v-114h462z" />
    <glyph glyph-name="sadinitialarabic" unicode="&#x635;" horiz-adv-x="869" arabic-form="initial" 
d="M824 0c3 37 5 71 5 104c0 234 -86 352 -258 352c-107 0 -218 -67 -305 -187v137h-112v-174c0 -79 -28 -118 -85 -118h-82v-114h837zM713 114h-446c62 138 181 242 293 242c95 0 155 -81 155 -210z" />
    <glyph glyph-name="pehinitialarabic" unicode="&#x67e;" horiz-adv-x="301" arabic-form="initial" 
d="M268 181v273h-112v-235c0 -37 -3 -61 -8 -72c-11 -22 -34 -33 -71 -33h-85v-114h108c112 0 168 60 168 181zM264 -178v112h-110v-112h110zM74 -178v112h-110v-112h110zM171 -336v112h-110v-112h110z" />
    <glyph glyph-name="vehinitialarabic" unicode="&#x6a4;" horiz-adv-x="599" arabic-form="initial" 
d="M400 703v112h-110v-112h110zM493 546v111h-109v-111h109zM304 546v111h-109v-111h109zM567 230c0 131 -91 234 -224 234s-226 -95 -226 -231c0 -43 10 -83 29 -119h-159v-114h356c134 0 224 98 224 230zM452 230c0 -74 -42 -127 -107 -127c-67 0 -113 59 -113 131
c0 78 43 128 107 128c67 0 113 -56 113 -132z" />
    <glyph glyph-name="vehmedialarabic" unicode="&#x6a4;" horiz-adv-x="642" arabic-form="medial" 
d="M286 622v112h-110v-112h110zM475 622v112h-110v-112h110zM382 781v111h-110v-111h110zM661 0v114h-104c-51 0 -82 4 -93 11c31 24 56 55 73 94c16 34 24 69 24 106c0 142 -120 219 -233 219c-101 0 -183 -59 -220 -154c-8 -20 -12 -43 -12 -69c0 -36 8 -71 23 -104
c17 -37 42 -68 74 -92c-12 -7 -43 -11 -93 -11h-117v-114h123c95 0 169 18 221 55c53 -37 127 -55 223 -55h111zM389 203c-17 -13 -38 -25 -61 -37c-23 11 -44 24 -62 37c-44 32 -66 75 -66 128c0 35 11 64 32 87c23 25 55 38 96 38s73 -13 96 -38c21 -23 31 -52 31 -87
c0 -54 -22 -97 -66 -128z" />
    <glyph glyph-name="vehfinalarabic" unicode="&#x6a4;" horiz-adv-x="1072" arabic-form="final" 
d="M810 781v111h-109v-111h109zM904 622v112h-110v-112h110zM714 622v112h-110v-112h110zM1093 0v114h-106c-51 0 -82 4 -93 11c31 24 55 55 73 94c16 34 24 69 24 106c0 25 -4 46 -13 65c-21 47 -49 84 -86 111c-39 29 -84 43 -134 43c-101 0 -183 -59 -220 -154
c-8 -20 -12 -43 -12 -69c0 -36 8 -71 24 -104c17 -37 41 -68 72 -92c-11 -7 -42 -11 -93 -11h-192c-61 0 -107 11 -137 32c-38 26 -57 72 -57 137v151h-111v-151c0 -189 106 -283 318 -283h186c95 0 169 18 222 55c51 -37 126 -55 223 -55h112zM820 203
c-17 -13 -38 -25 -62 -37c-23 11 -43 24 -61 37c-44 32 -66 75 -66 128c0 35 10 64 31 87c23 25 55 38 96 38s73 -13 96 -38c21 -23 32 -52 32 -87c0 -54 -22 -97 -66 -128z" />
    <glyph glyph-name="jehfinalarabic" unicode="&#x698;" horiz-adv-x="443" arabic-form="final" 
d="M465 0v114h-172v340h-112v-382c0 -96 -46 -142 -139 -142v-96c136 0 227 59 244 166h179zM103 546v112h-110v-112h110zM292 546v112h-110v-112h110zM199 705v111h-110v-111h110z" />
    <glyph glyph-name="hamzaarabic" unicode="&#x621;" horiz-adv-x="519" arabic-form="isolated" 
d="M486 0v114h-214c-17 19 -25 44 -25 76c0 27 6 49 18 66c14 21 34 31 59 31c36 0 60 -18 71 -54l80 55c-28 64 -87 102 -156 102c-53 0 -97 -19 -132 -56c-34 -37 -51 -83 -51 -136c0 -30 6 -58 17 -84h-91v-114h424z" />
    <glyph glyph-name="alefarabic" unicode="&#x627;" horiz-adv-x="214" arabic-form="isolated" 
d="M182 0v646h-111v-646h111z" />
    <glyph glyph-name="beharabic" unicode="&#x628;" horiz-adv-x="901" arabic-form="isolated" 
d="M868 454h-110v-217c0 -51 -14 -86 -42 -104c-19 -13 -54 -19 -105 -19h-274c-61 0 -107 11 -137 32c-38 26 -57 72 -57 137v171h-111v-171c0 -189 106 -283 318 -283h363c99 0 155 60 155 160v294zM542 -219v112h-110v-112h110z" />
    <glyph glyph-name="tehmarbutaarabic" unicode="&#x629;" horiz-adv-x="531" arabic-form="isolated" 
d="M506 242c0 144 -99 247 -236 247s-238 -100 -238 -243c0 -140 98 -246 238 -246c142 0 236 105 236 242zM391 242c0 -81 -46 -141 -118 -141s-125 63 -125 146c0 81 44 142 118 142c76 0 125 -63 125 -147zM228 581v111h-110v-111h110zM418 581v111h-110v-111h110z" />
    <glyph glyph-name="teharabic" unicode="&#x62a;" horiz-adv-x="901" arabic-form="isolated" 
d="M868 454h-110v-217c0 -51 -14 -86 -42 -104c-19 -13 -54 -19 -105 -19h-274c-61 0 -107 11 -137 32c-38 26 -57 72 -57 137v171h-111v-171c0 -189 106 -283 318 -283h363c99 0 155 60 155 160v294zM598 455v111h-109v-111h109zM408 455v111h-109v-111h109z" />
    <glyph glyph-name="theharabic" unicode="&#x62b;" horiz-adv-x="901" arabic-form="isolated" 
d="M868 454h-110v-217c0 -51 -14 -86 -42 -104c-19 -13 -54 -19 -105 -19h-274c-61 0 -107 11 -137 32c-38 26 -57 72 -57 137v171h-111v-171c0 -189 106 -283 318 -283h363c99 0 155 60 155 160v294zM505 612v112h-109v-112h109zM598 455v111h-109v-111h109zM408 455v111
h-109v-111h109z" />
    <glyph glyph-name="jeemarabic" unicode="&#x62c;" horiz-adv-x="543" arabic-form="isolated" 
d="M376 27v111h-110v-111h110zM511 305c0 65 -20 125 -61 179c-53 70 -129 99 -227 99c-36 0 -65 -8 -86 -17v-96c14 8 40 16 78 16c98 0 156 -46 175 -157h-123c-69 0 -125 -19 -166 -58c-46 -43 -69 -106 -69 -189s28 -146 83 -190c49 -38 115 -57 198 -57h80v117h-121
c-35 0 -66 12 -91 35s-37 53 -37 90c0 84 52 137 128 137h239v91z" />
    <glyph glyph-name="haharabic" unicode="&#x62d;" horiz-adv-x="543" arabic-form="isolated" 
d="M511 305c0 65 -20 125 -61 179c-53 70 -129 99 -227 99c-36 0 -65 -8 -86 -17v-96c14 8 40 16 78 16c98 0 156 -46 175 -157h-123c-69 0 -125 -19 -166 -58c-46 -43 -69 -106 -69 -189s28 -146 83 -190c49 -38 115 -57 198 -57h80v117h-121c-35 0 -66 12 -91 35
s-37 53 -37 90c0 84 52 137 128 137h239v91z" />
    <glyph glyph-name="khaharabic" unicode="&#x62e;" horiz-adv-x="543" arabic-form="isolated" 
d="M349 645v112h-110v-112h110zM511 305c0 65 -20 125 -61 179c-53 70 -129 99 -227 99c-36 0 -65 -8 -86 -17v-96c14 8 40 16 78 16c98 0 156 -46 175 -157h-123c-69 0 -125 -19 -166 -58c-46 -43 -69 -106 -69 -189s28 -146 83 -190c49 -38 115 -57 198 -57h80v117h-121
c-35 0 -66 12 -91 35s-37 53 -37 90c0 84 52 137 128 137h239v91z" />
    <glyph glyph-name="dalarabic" unicode="&#x62f;" horiz-adv-x="569" arabic-form="isolated" 
d="M537 0v114c-1 171 -68 279 -202 324c-26 9 -46 13 -60 14s-49 2 -104 2v-102c36 0 70 -2 101 -9c101 -22 152 -98 152 -229h-362v-114h475z" />
    <glyph glyph-name="thalarabic" unicode="&#x630;" horiz-adv-x="569" arabic-form="isolated" 
d="M332 548v111h-109v-111h109zM537 0v114c-1 171 -68 279 -202 324c-26 9 -46 13 -60 14s-49 2 -104 2v-102c36 0 70 -2 101 -9c101 -22 152 -98 152 -229h-362v-114h475z" />
    <glyph glyph-name="reharabic" unicode="&#x631;" horiz-adv-x="325" arabic-form="isolated" 
d="M293 454h-112v-382c0 -96 -46 -142 -139 -142v-96c172 0 251 75 251 255v365z" />
    <glyph glyph-name="zainarabic" unicode="&#x632;" horiz-adv-x="325" arabic-form="isolated" 
d="M292 546v111h-110v-111h110zM293 454h-112v-382c0 -96 -46 -142 -139 -142v-96c172 0 251 75 251 255v365z" />
    <glyph glyph-name="seenarabic" unicode="&#x633;" horiz-adv-x="1273" arabic-form="isolated" 
d="M1231 238v216h-113v-230c0 -73 -28 -110 -85 -110h-109c15 16 23 57 23 122v218h-113v-229c0 -74 -28 -111 -85 -111h-90c3 20 5 41 5 62v278h-113v-265c0 -65 -16 -121 -49 -168c-39 -53 -90 -80 -153 -80c-64 0 -115 27 -154 80c-33 47 -50 103 -50 168v265h-113v-278
c0 -97 32 -178 95 -244c61 -65 135 -98 222 -98c88 0 162 34 223 102c19 20 34 41 47 64h418c51 0 94 18 129 53c43 43 65 104 65 185z" />
    <glyph glyph-name="sheenarabic" unicode="&#x634;" horiz-adv-x="1273" arabic-form="isolated" 
d="M1231 238v216h-113v-230c0 -73 -28 -110 -85 -110h-109c15 16 23 57 23 122v218h-113v-229c0 -74 -28 -111 -85 -111h-90c3 20 5 41 5 62v278h-113v-265c0 -65 -16 -121 -49 -168c-39 -53 -90 -80 -153 -80c-64 0 -115 27 -154 80c-33 47 -50 103 -50 168v265h-113v-278
c0 -97 32 -178 95 -244c61 -65 135 -98 222 -98c88 0 162 34 223 102c19 20 34 41 47 64h418c51 0 94 18 129 53c43 43 65 104 65 185zM945 703v112h-110v-112h110zM1038 546v111h-109v-111h109zM849 546v111h-109v-111h109z" />
    <glyph glyph-name="sadarabic" unicode="&#x635;" horiz-adv-x="1269" arabic-form="isolated" 
d="M1224 0c3 37 5 71 5 104c0 234 -86 352 -258 352c-108 0 -218 -68 -307 -189v187h-113v-265c0 -141 -84 -248 -202 -248c-119 0 -204 108 -204 248v265h-113v-278c0 -188 143 -342 317 -342c110 0 209 57 270 166h605zM1113 114h-446c62 138 181 242 293 242
c95 0 155 -81 155 -210z" />
    <glyph glyph-name="dadarabic" unicode="&#x636;" horiz-adv-x="1269" arabic-form="isolated" 
d="M1224 0c3 37 5 71 5 104c0 234 -86 352 -258 352c-108 0 -218 -68 -307 -189v187h-113v-265c0 -141 -84 -248 -202 -248c-119 0 -204 108 -204 248v265h-113v-278c0 -188 143 -342 317 -342c110 0 209 57 270 166h605zM1113 114h-446c62 138 181 242 293 242
c95 0 155 -81 155 -210zM1012 546v111h-110v-111h110z" />
    <glyph glyph-name="taharabic" unicode="&#x637;" horiz-adv-x="811" arabic-form="isolated" 
d="M32 114v-114h742c3 37 5 71 5 104c0 234 -86 352 -259 352c-106 0 -202 -54 -294 -173l13 362h-111v-531h-96zM217 114c62 138 181 242 293 242c96 0 155 -83 155 -210l-2 -32h-446z" />
    <glyph glyph-name="zaharabic" unicode="&#x638;" horiz-adv-x="811" arabic-form="isolated" 
d="M774 0c3 37 5 71 5 104c0 234 -86 352 -259 352c-106 0 -202 -54 -294 -173l13 362h-111v-531h-96v-114h742zM663 114h-446c62 138 181 242 293 242c96 0 155 -83 155 -210zM552 546v111h-109v-111h109z" />
    <glyph glyph-name="ainarabic" unicode="&#x639;" horiz-adv-x="591" arabic-form="isolated" 
d="M559 201v111h-204c-37 13 -69 70 -69 123c0 69 39 118 101 118c38 0 65 -18 82 -54l84 40c-34 71 -89 106 -164 106c-117 0 -206 -87 -206 -212c0 -39 12 -81 37 -125c-114 -19 -188 -111 -188 -235c0 -145 113 -239 271 -239h171v111h-179c-96 0 -156 47 -156 125
c0 87 52 131 156 131h264z" />
    <glyph glyph-name="ghainarabic" unicode="&#x63a;" horiz-adv-x="591" arabic-form="isolated" 
d="M559 201v111h-204c-37 13 -69 70 -69 123c0 69 39 118 101 118c38 0 65 -18 82 -54l84 40c-34 71 -89 106 -164 106c-117 0 -206 -87 -206 -212c0 -39 12 -81 37 -125c-114 -19 -188 -111 -188 -235c0 -145 113 -239 271 -239h171v111h-179c-96 0 -156 47 -156 125
c0 87 52 131 156 131h264zM443 722v111h-109v-111h109z" />
    <glyph glyph-name="feharabic" unicode="&#x641;" horiz-adv-x="951" arabic-form="isolated" 
d="M750 546v111h-110v-111h110zM918 230c0 131 -91 234 -224 234s-226 -97 -226 -231c0 -43 11 -82 28 -120v1h-159c-135 0 -194 49 -194 169v151h-111v-151c0 -185 102 -283 307 -283h355c134 0 224 98 224 230zM803 230c0 -72 -39 -127 -107 -127c-67 0 -112 58 -112 131
c0 78 42 128 107 128c66 0 112 -56 112 -132z" />
    <glyph glyph-name="qafarabic" unicode="&#x642;" horiz-adv-x="731" arabic-form="isolated" 
d="M699 162c0 70 0 108 -1 113c0 133 -83 211 -210 211s-205 -82 -205 -214s81 -214 208 -214c36 0 68 9 96 28c-30 -90 -121 -151 -222 -151c-138 0 -227 94 -227 239v174h-106v-186c0 -185 143 -328 336 -328c186 0 331 144 331 328zM594 268c0 -72 -40 -125 -103 -125
c-64 0 -104 55 -104 131c0 74 45 131 103 131c59 0 104 -55 104 -137zM449 546v111h-110v-111h110zM639 546v111h-110v-111h110z" />
    <glyph glyph-name="kafarabic" unicode="&#x643;" horiz-adv-x="901" arabic-form="isolated" 
d="M868 645h-110v-408c0 -51 -14 -86 -42 -104c-19 -13 -54 -19 -105 -19h-274c-61 0 -107 11 -137 32c-38 26 -57 72 -57 137v171h-111v-171c0 -189 106 -283 318 -283h363c99 0 155 60 155 160v485zM579 389v67h-126c-9 11 -14 26 -14 45c0 38 15 57 45 57
c21 0 35 -11 42 -32l47 32c-17 40 -48 60 -92 60c-63 0 -108 -50 -108 -113c0 -17 4 -34 11 -49h-54v-67h249z" />
    <glyph glyph-name="lamarabic" unicode="&#x644;" horiz-adv-x="696" arabic-form="isolated" 
d="M664 176v469h-113v-456c0 -139 -84 -248 -202 -248c-122 0 -204 111 -204 248v85h-113v-98c0 -188 143 -342 317 -342s315 158 315 342z" />
    <glyph glyph-name="meemarabic" unicode="&#x645;" horiz-adv-x="805" arabic-form="isolated" 
d="M771 220c0 132 -91 235 -224 235h-282c-148 0 -233 -106 -233 -266v-355h112v332c0 109 48 175 123 175h82c-19 -34 -28 -73 -28 -118c0 -130 93 -233 226 -233c132 0 224 99 224 230zM656 220c0 -74 -43 -127 -106 -127c-67 0 -114 58 -114 131c0 72 39 128 107 128
c69 0 113 -57 113 -132z" />
    <glyph glyph-name="noonarabic" unicode="&#x646;" horiz-adv-x="696" arabic-form="isolated" 
d="M664 176v278h-113v-265c0 -65 -16 -121 -49 -168c-39 -53 -90 -80 -153 -80c-64 0 -115 27 -154 80c-33 47 -50 103 -50 168v265h-113v-278c0 -97 32 -178 95 -244c61 -65 135 -98 222 -98c88 0 162 34 223 102c61 67 92 147 92 240zM406 546v111h-110v-111h110z" />
    <glyph glyph-name="heharabic" unicode="&#x647;" horiz-adv-x="531" arabic-form="isolated" 
d="M506 242c0 144 -99 247 -236 247s-238 -100 -238 -243c0 -140 98 -246 238 -246c142 0 236 105 236 242zM391 242c0 -81 -46 -141 -118 -141s-125 63 -125 146c0 81 44 142 118 142c76 0 125 -63 125 -147z" />
    <glyph glyph-name="wawarabic" unicode="&#x648;" horiz-adv-x="525" arabic-form="isolated" 
d="M493 14v211c0 132 -84 230 -216 230c-126 0 -215 -92 -215 -227c0 -133 86 -228 215 -228c51 0 87 17 106 51c-2 -78 -37 -125 -107 -127v-89c145 0 217 60 217 179zM378 223c0 -66 -41 -122 -101 -122c-61 0 -103 57 -103 127c0 68 39 125 98 125c64 0 106 -52 106 -130
z" />
    <glyph glyph-name="alefmaksuraarabic" unicode="&#x649;" horiz-adv-x="759" arabic-form="isolated" 
d="M727 283h-247c36 85 88 115 208 115v104c-215 0 -337 -116 -337 -328h264c-12 -155 -91 -233 -236 -233c-146 0 -235 97 -235 247v99h-112v-111c0 -194 151 -342 344 -342h7c191 0 344 149 344 342v107z" />
    <glyph glyph-name="yeharabic" unicode="&#x64a;" horiz-adv-x="759" arabic-form="isolated" 
d="M727 176v107h-247c19 45 47 77 82 94c29 14 71 21 126 21v104c-215 0 -337 -116 -337 -328h264c-12 -155 -91 -233 -236 -233c-75 0 -134 23 -175 70c-40 44 -60 103 -60 177v99h-112v-111c0 -97 33 -179 99 -244s148 -98 245 -98h7c97 0 178 33 244 98
c67 65 100 147 100 244zM526 -387v111h-110v-111h110zM337 -387v111h-110v-111h110z" />
    <glyph glyph-name="fathatanarabic" unicode="&#xfe70;" arabic-form="isolated" 
d="M218 804l-155 -36c-20 -7 -33 -20 -39 -38l10 2c84 18 129 27 136 29c29 7 45 22 48 43zM206 742l-155 -36c-20 -7 -33 -20 -39 -38c91 19 139 29 146 30c29 7 45 22 48 44z" />
    <glyph glyph-name="dammatanarabic" unicode="&#xfe72;" arabic-form="isolated" 
d="M214 767c0 27 -17 57 -53 57c-29 0 -46 -26 -46 -50c0 -21 9 -39 28 -54c-13 -12 -49 -25 -70 -25c11 13 17 29 17 46c0 28 -12 44 -37 44c-21 0 -34 -10 -41 -31c9 7 19 11 28 11c18 0 26 -12 26 -29c0 -21 -7 -37 -21 -46c5 -9 10 -17 13 -22c108 0 156 62 156 99z
M164 800c13 0 27 -12 27 -27c0 -14 -10 -27 -31 -40c-14 9 -21 22 -21 41c0 17 8 26 25 26z" />
    <glyph glyph-name="kasratanarabic" unicode="&#xfe74;" arabic-form="isolated" 
d="M214 -275l-155 -36c-19 -7 -32 -20 -39 -38l10 2c84 18 129 27 136 29c29 7 45 22 48 43zM202 -337l-155 -36c-19 -7 -32 -20 -39 -38c91 19 139 29 146 30c29 7 45 22 48 44z" />
    <glyph glyph-name="fathaarabic" unicode="&#xfe76;" arabic-form="isolated" 
d="M214 739l-155 -36c-19 -7 -32 -19 -39 -37c91 19 139 29 146 30c29 7 45 22 48 43z" />
    <glyph glyph-name="dammaarabic" unicode="&#xfe78;" arabic-form="isolated" 
d="M192 768c0 25 -17 56 -53 56c-13 0 -24 -4 -31 -12c-11 -11 -16 -23 -16 -37c0 -21 9 -39 28 -54c-7 -6 -20 -12 -41 -19c-20 -7 -39 -10 -57 -10c6 -10 11 -18 14 -24c19 0 40 4 64 11c64 19 92 57 92 89zM142 800c13 0 27 -12 27 -25c0 -15 -10 -29 -31 -40
c-14 9 -21 22 -21 40c0 17 8 25 25 25z" />
    <glyph glyph-name="kasraarabic" unicode="&#xfe7a;" arabic-form="isolated" 
d="M203 -273l-154 -36c-20 -7 -33 -19 -39 -38c91 19 139 30 146 31c29 7 44 22 47 43z" />
    <glyph glyph-name="shaddaarabic" unicode="&#xfe7c;" arabic-form="isolated" 
d="M219 741l-15 77l-33 -6l14 -69c1 -3 1 -5 1 -8c0 -10 -4 -15 -13 -15c-17 0 -27 11 -31 31l-11 52l-33 -7l11 -53c1 -4 2 -8 2 -12c0 -13 -11 -29 -24 -29c-7 0 -12 6 -15 17l-15 69l-32 -8l16 -76c5 -25 21 -38 43 -38c30 0 46 21 48 53c13 -22 27 -33 44 -33
c31 0 46 17 46 36c0 5 -1 11 -3 19z" />
    <glyph glyph-name="sukunarabic" unicode="&#xfe7e;" arabic-form="isolated" 
d="M157 752c-8 37 -30 56 -65 56c-46 0 -70 -27 -70 -65c0 -51 30 -77 66 -77c47 0 71 28 71 67c0 6 -1 12 -2 19zM89 783c24 0 38 -28 38 -53c0 -22 -11 -38 -34 -38c-26 0 -40 26 -40 54c0 25 12 37 36 37z" />
    <glyph glyph-name="peharabic" unicode="&#x67e;" horiz-adv-x="901" arabic-form="isolated" 
d="M868 454h-110v-217c0 -51 -14 -86 -42 -104c-19 -13 -54 -19 -105 -19h-274c-61 0 -107 11 -137 32c-38 26 -57 72 -57 137v171h-111v-171c0 -189 106 -283 318 -283h363c99 0 155 60 155 160v294zM620 -178v112h-110v-112h110zM431 -178v112h-110v-112h110zM527 -336
v112h-109v-112h109z" />
    <glyph glyph-name="tcheharabic" unicode="&#x686;" horiz-adv-x="543" arabic-form="isolated" 
d="M407 91v80h-79v-80h79zM272 91v80h-78v-80h78zM340 -21v79h-78v-79h78zM511 305c0 65 -20 125 -61 179c-53 70 -129 99 -227 99c-36 0 -65 -8 -86 -17v-96c14 8 40 16 78 16c98 0 156 -46 175 -157h-123c-69 0 -125 -19 -166 -58c-46 -43 -69 -106 -69 -189
s28 -146 83 -190c49 -38 115 -57 198 -57h80v117h-121c-35 0 -66 12 -91 35s-37 53 -37 90c0 84 52 137 128 137h239v91z" />
    <glyph glyph-name="veharabic" unicode="&#x6a4;" horiz-adv-x="951" arabic-form="isolated" 
d="M751 703v112h-109v-112h109zM845 546v111h-110v-111h110zM656 546v111h-110v-111h110zM918 230c0 131 -91 234 -224 234s-226 -97 -226 -231c0 -43 11 -82 28 -120v1h-159c-135 0 -194 49 -194 169v151h-111v-151c0 -185 102 -283 307 -283h355c134 0 224 98 224 230z
M803 230c0 -72 -39 -127 -107 -127c-67 0 -112 58 -112 131c0 78 42 128 107 128c66 0 112 -56 112 -132z" />
    <glyph glyph-name="jeharabic" unicode="&#x698;" horiz-adv-x="325" arabic-form="isolated" 
d="M293 454h-112v-382c0 -96 -46 -142 -139 -142v-96c172 0 251 75 251 255v365zM103 546v112h-110v-112h110zM292 546v112h-110v-112h110zM199 705v111h-110v-111h110z" />
    <glyph glyph-name="alefwaslafinal" unicode="&#x671;" horiz-adv-x="346" arabic-form="final" 
d="M366 0v114h-66c-42 0 -71 6 -86 17c-21 15 -32 47 -32 96v418h-111v-463c0 -55 13 -98 40 -130c29 -35 70 -52 124 -52h131zM234 701c0 81 -25 124 -72 130h-7c-13 0 -27 -5 -42 -14c-25 -16 -45 -43 -62 -81v59l-24 1v-64h-28v-31h235zM199 730l-129 1
c29 45 58 67 86 67c29 -1 43 -23 43 -64v-4z" />
    <glyph glyph-name="alefwaslaisolated" unicode="&#x671;" horiz-adv-x="214" arabic-form="isolated" 
d="M182 0v646h-111v-646h111zM234 701c0 81 -25 124 -72 130h-7c-13 0 -27 -5 -42 -14c-25 -16 -45 -43 -62 -81v59l-24 1v-64h-28v-31h235zM199 730l-129 1c29 45 58 67 86 67c29 -1 43 -23 43 -64v-4z" />
    <glyph glyph-name="pehmedialarabic" unicode="&#x67e;" horiz-adv-x="431" arabic-form="medial" 
d="M278 -178v112h-109v-112h109zM89 -178v112h-110v-112h110zM185 -336v112h-109v-112h109zM446 0v114h-192c16 19 24 57 24 116v224h-111v-230c0 -35 -4 -61 -12 -76c-12 -23 -34 -34 -67 -34h-104v-114h462z" />
    <glyph glyph-name="tchehfinalarabic" unicode="&#x686;" horiz-adv-x="689" arabic-form="final" 
d="M407 91v80h-79v-80h79zM272 91v80h-78v-80h78zM340 -21v79h-78v-79h78zM706 0v114h-26c-35 0 -67 11 -95 34c-41 32 -65 84 -74 157c-23 193 -119 278 -288 278c-36 0 -65 -8 -86 -17v-96c14 8 40 16 78 16c98 0 156 -46 175 -157h-123c-69 0 -125 -19 -166 -58
c-46 -43 -69 -106 -69 -189s28 -146 83 -190c49 -38 115 -57 198 -57h80v117h-121c-35 0 -66 12 -91 35s-37 53 -37 90c0 84 52 137 128 137h135c9 -49 34 -94 77 -136c54 -52 119 -78 196 -78h26z" />
    <glyph glyph-name="tchehmedialarabic" unicode="&#x686;" horiz-adv-x="774" arabic-form="medial" 
d="M515 -178v112h-109v-112h109zM325 -178v112h-109v-112h109zM422 -336v112h-109v-112h109zM787 0v114h-106c-9 139 -59 236 -150 292c-52 32 -113 48 -182 48c-44 0 -88 -9 -132 -28c-41 -18 -76 -42 -107 -71c25 -38 43 -67 54 -88c24 27 54 48 90 63c31 13 59 19 84 19
c73 0 131 -25 172 -76c35 -44 52 -97 52 -159h-578v-114h803z" />
    <glyph glyph-name="tchehinitialarabic" unicode="&#x686;" horiz-adv-x="715" arabic-form="initial" 
d="M498 -178v112h-110v-112h110zM309 -178v112h-110v-112h110zM405 -336v112h-110v-112h110zM683 70c0 157 -47 266 -142 329c-54 37 -118 55 -192 55c-44 0 -88 -9 -132 -28c-41 -18 -76 -42 -107 -71c25 -38 43 -67 54 -88c24 27 54 48 90 63c31 13 59 19 84 19
c73 0 131 -25 172 -76c35 -44 52 -97 52 -159h-583v-114h704v70z" />
    <glyph glyph-name="pehfinalarabic" unicode="&#x67e;" horiz-adv-x="1020" arabic-form="final" 
d="M1032 0v114h-189c17 19 25 57 25 116v224h-112v-230c0 -35 -4 -61 -12 -76c-11 -23 -34 -34 -67 -34h-340c-61 0 -107 11 -137 32c-38 26 -57 72 -57 137v171h-111v-171c0 -189 106 -283 318 -283h682zM636 -178v112h-110v-112h110zM446 -178v112h-109v-112h109z
M543 -336v112h-110v-112h110z" />
    <glyph glyph-name=".notdef" horiz-adv-x="500" 
d="M63 0h375v750h-375v-750zM125 63v625h250v-625h-250z" />
    <glyph glyph-name=".null" 
 />
    <glyph glyph-name="CR" horiz-adv-x="333" 
 />
    <glyph glyph-name="space" unicode=" " horiz-adv-x="240" 
 />
    <glyph glyph-name="_4" horiz-adv-x="280" 
 />
    <glyph glyph-name="_13" horiz-adv-x="273" 
 />
    <glyph glyph-name="kashidaautoarabic" horiz-adv-x="198" 
d="M206 0v114h-211v-114h211z" />
    <glyph glyph-name="decimalseparatorarabic" unicode="&#x66b;" horiz-adv-x="189" 
d="M24 149v-126h58c0 -46 -17 -71 -50 -75v-53c37 8 63 18 79 30c24 19 36 47 36 85v139h-123z" />
    <glyph glyph-name="thousandsseparatorarabic" unicode="&#x66c;" horiz-adv-x="189" 
d="M24 149v-126h58c0 -46 -17 -71 -50 -75v-53c37 8 63 18 79 30c24 19 36 47 36 85v139h-123z" />
    <glyph glyph-name="nonbreakingspace" horiz-adv-x="623" 
 />
    <glyph glyph-name="guillemotleft" unicode="&#xab;" horiz-adv-x="363" 
d="M313 33c-23 27 -39 49 -47 67c-11 22 -16 49 -16 82c0 62 21 112 63 150l-37 38c-67 -49 -101 -110 -101 -183s33 -136 99 -189zM167 33c-24 27 -40 49 -48 67c-11 22 -16 49 -16 82c0 62 21 112 64 150l-38 38c-67 -49 -100 -110 -100 -183s33 -136 98 -189z" />
    <glyph glyph-name="guillemotright" unicode="&#xbb;" horiz-adv-x="407" 
d="M374 187c0 73 -33 134 -99 183l-38 -38c42 -38 63 -88 63 -150c0 -33 -5 -60 -15 -82c-9 -18 -25 -40 -48 -67l40 -35c65 53 97 116 97 189zM229 187c0 73 -34 134 -101 183l-38 -38c43 -38 64 -88 64 -150c0 -33 -5 -60 -16 -82c-8 -18 -24 -40 -48 -67l40 -35
c66 53 99 116 99 189z" />
    <glyph glyph-name="divide" unicode="&#xf7;" horiz-adv-x="662" 
d="M387 396v124h-112v-124h112zM592 237v103h-522v-103h522zM386 57v124h-111v-124h111z" />
    <glyph glyph-name="exclam" unicode="!" horiz-adv-x="230" 
d="M157 402v249h-121v-249c0 -3 4 -29 11 -80l23 -160h52l23 160c1 3 3 17 7 40c3 15 5 28 5 40zM157 0v127h-121v-127h121z" />
    <glyph glyph-name="quotedbl" unicode="&#x22;" horiz-adv-x="251" 
d="M103 686h-82l27 -272h30zM228 686h-82l27 -272h30z" />
    <glyph glyph-name="dollar" unicode="$" horiz-adv-x="575" 
d="M542 160c0 59 -25 103 -75 133c-27 16 -77 33 -151 50v156c25 -3 49 -9 74 -19c13 -5 34 -14 61 -27l62 74c-62 37 -128 60 -197 67v108h-45v-107c-69 -7 -121 -22 -154 -45c-43 -31 -65 -80 -65 -147c0 -85 73 -143 220 -172v-173c-59 5 -117 23 -174 54l-66 -77
c64 -41 144 -66 240 -76v-113h44v113c151 15 226 82 226 201zM272 350c-31 7 -53 13 -66 20c-24 12 -36 30 -36 54c0 27 11 46 33 57c14 7 37 13 69 17v-148zM425 148c0 -30 -12 -52 -35 -67c-14 -9 -39 -16 -74 -23v164c73 -10 109 -35 109 -74z" />
    <glyph glyph-name="percentarabic" unicode="&#x66a;" horiz-adv-x="430" 
d="M187 526v92h-96v-92h96zM397 646h-99l-266 -646h99zM346 32v92h-97v-92h97z" />
    <glyph glyph-name="quotesingle" unicode="'" horiz-adv-x="126" 
d="M103 686h-82l27 -272h30z" />
    <glyph glyph-name="parenright" unicode=")" horiz-adv-x="368" 
d="M336 295c0 121 -36 227 -107 320c-29 37 -64 73 -105 106c-9 7 -16 12 -21 17l-41 -55c51 -41 90 -97 118 -168c29 -71 43 -147 43 -229c0 -123 -30 -226 -91 -310c-15 -21 -38 -47 -70 -80l43 -47c56 43 100 87 132 133c66 93 99 198 99 313z" />
    <glyph glyph-name="parenleft" unicode="(" horiz-adv-x="310" 
d="M310 -97c-51 41 -90 97 -119 168s-43 148 -43 230c0 123 30 226 90 309c15 21 38 48 70 81l-42 47c-57 -43 -98 -86 -133 -134c-65 -91 -98 -196 -98 -313c0 -168 71 -310 212 -426l22 -16z" />
    <glyph glyph-name="multiply" unicode="&#xd7;" horiz-adv-x="534" 
d="M464 141l-133 142l133 142l-64 68l-133 -142l-132 142l-65 -68l133 -142l-133 -142l65 -68l132 142l133 -142z" />
    <glyph glyph-name="plus" unicode="+" horiz-adv-x="636" 
d="M566 240v95h-193v200h-112v-200h-191v-95h191v-199h112v199h193z" />
    <glyph glyph-name="commaarabic" unicode="&#x60c;" horiz-adv-x="208" 
d="M148 0v126h-58c0 46 17 71 50 75v53c-37 -8 -63 -18 -79 -30c-24 -19 -36 -47 -36 -85v-139h123z" />
    <glyph glyph-name="hyphen" unicode="-" horiz-adv-x="443" 
d="M373 230v100h-303v-100h303z" />
    <glyph glyph-name="period" unicode="." horiz-adv-x="207" 
d="M147 0v126h-122v-126h122z" />
    <glyph glyph-name="slash" unicode="/" horiz-adv-x="419" 
d="M419 651h-110l-309 -651h110z" />
    <glyph glyph-name="zeroarabic" unicode="&#x660;" horiz-adv-x="280" 
d="M210 103v155l-140 69v-154z" />
    <glyph glyph-name="onearabic" unicode="&#x661;" horiz-adv-x="251" 
d="M181 0v632l-111 -81v-551h111z" />
    <glyph glyph-name="twoarabic" unicode="&#x662;" horiz-adv-x="526" 
d="M456 548v98c-50 -1 -86 -1 -108 -1c-200 0 -278 -148 -278 -369v-276h111v336c0 55 14 102 41 143c31 46 73 69 126 69h108z" />
    <glyph glyph-name="threearabic" unicode="&#x663;" horiz-adv-x="568" 
d="M531 540v101h-108v-75c0 -69 -3 -107 -86 -107c23 15 23 52 23 81v101h-98v-75c0 -69 -10 -103 -81 -103v178h-111v-641h111v361h139c61 0 110 14 147 42c43 32 64 78 64 137z" />
    <glyph glyph-name="fourarabic" unicode="&#x664;" horiz-adv-x="496" 
d="M447 0v93h-181c-62 0 -104 40 -104 100c0 68 42 107 104 107h58v75h-54c-51 0 -93 37 -93 86c0 56 30 94 93 94h155v90h-174c-109 0 -187 -62 -187 -156c0 -80 41 -132 122 -156c-91 -17 -137 -67 -137 -150c0 -108 92 -183 217 -183h181z" />
    <glyph glyph-name="fivearabic" unicode="&#x665;" horiz-adv-x="556" 
d="M505 283c0 67 -32 137 -98 208c-53 57 -98 92 -135 105c-35 -13 -78 -49 -131 -109c-64 -73 -96 -142 -96 -205c0 -151 88 -243 231 -243s229 99 229 244zM391 279c0 -86 -47 -139 -118 -139c-73 0 -119 53 -119 139c0 69 68 181 119 208c55 -30 118 -137 118 -208z" />
    <glyph glyph-name="sixarabic" unicode="&#x666;" horiz-adv-x="526" 
d="M70 548v98c50 -1 86 -1 108 -1c200 0 278 -148 278 -369v-276h-111v336c0 55 -14 102 -41 143c-31 46 -73 69 -126 69h-108z" />
    <glyph glyph-name="sevenarabic" unicode="&#x667;" horiz-adv-x="549" 
d="M349 0l150 645h-122l-98 -521l-115 521h-114l153 -645h146z" />
    <glyph glyph-name="eightarabic" unicode="&#x668;" horiz-adv-x="549" 
d="M499 0l-150 645h-146l-153 -645h114l115 522l98 -522h122z" />
    <glyph glyph-name="ninearabic" unicode="&#x669;" horiz-adv-x="558" 
d="M488 419c0 65 -22 118 -65 161s-97 65 -163 65c-65 0 -118 -21 -159 -63c-41 -41 -61 -95 -61 -160c0 -69 17 -125 52 -168c39 -47 95 -71 168 -71c49 0 88 18 118 53v-236h110v419zM374 411c0 -33 -8 -62 -25 -86c-19 -27 -46 -41 -79 -41c-34 0 -61 14 -82 41
c-18 25 -27 55 -27 90s8 64 25 87c19 27 46 41 79 41c34 0 61 -14 82 -42c18 -25 27 -55 27 -90z" />
    <glyph glyph-name="colon" unicode=":" horiz-adv-x="217" 
d="M147 0v126h-122v-126h122zM147 219v127h-122v-127h122z" />
    <glyph glyph-name="semicolonarabic" unicode="&#x61b;" horiz-adv-x="208" 
d="M147 0v126h-122v-126h122zM148 221v127h-58c0 46 17 71 50 74v54c-37 -8 -63 -18 -79 -31c-24 -18 -36 -46 -36 -84v-140h123z" />
    <glyph glyph-name="greater" unicode="&#x3e;" horiz-adv-x="542" 
d="M418 223l-234 234h-109l234 -234l-234 -233h109z" />
    <glyph glyph-name="equal" unicode="=" horiz-adv-x="596" 
d="M540 326v96h-485v-96h485zM540 136v97h-485v-97h485z" />
    <glyph glyph-name="less" unicode="&#x3c;" horiz-adv-x="542" 
d="M477 0l-234 233l234 234h-119l-234 -234l234 -233h119z" />
    <glyph glyph-name="questionarabic" unicode="&#x61f;" horiz-adv-x="509" 
d="M483 449c-3 36 -8 65 -17 86c-33 85 -103 127 -210 127c-60 0 -110 -17 -151 -50c-44 -35 -66 -83 -66 -143c0 -57 23 -104 68 -141l35 -25c27 -17 43 -33 50 -46s11 -34 11 -63c0 -12 0 -21 -1 -26h109v23c0 66 -9 111 -26 136c-9 13 -25 28 -47 44
c-25 17 -42 29 -49 38c-15 17 -23 37 -23 60c0 51 46 88 97 88c68 0 109 -50 109 -121zM317 0v126h-122v-126h122z" />
    <glyph glyph-name="asteriskarabic" unicode="&#x66d;" horiz-adv-x="500" 
d="M447 245l-9 20l-138 -20l-38 143h-20l-39 -143l-138 21l-9 -21l117 -93l-52 -139l17 -13l114 94l113 -94l17 15l-51 138z" />
    <glyph glyph-name="bracketright" unicode="]" horiz-adv-x="254" 
d="M221 -133v851h-189v-66h90v-717h-90v-68h189z" />
    <glyph glyph-name="backslash" unicode="\" horiz-adv-x="479" 
d="M446 0l-309 651h-109l309 -651h109z" />
    <glyph glyph-name="bracketleft" unicode="[" horiz-adv-x="254" 
d="M221 -133v67h-89v717h89v67h-189v-851h189z" />
    <glyph glyph-name="underscore" unicode="_" horiz-adv-x="382" 
d="M365 -100v84h-349v-84h349z" />
    <glyph glyph-name="tatweelarabic" unicode="&#x640;" horiz-adv-x="198" 
d="M206 0v114h-221v-114h221z" />
    <glyph glyph-name="braceright" unicode="}" horiz-adv-x="375" 
d="M35 -124c0 6 0 12 1 16c107 1 152 20 144 95v202c0 36 24 69 72 100c-48 37 -72 73 -72 99v202c0 41 -11 67 -30 78c-18 14 -55 21 -113 21v9c0 9 0 19 2 29c152 0 211 -40 211 -137v-202c0 -19 6 -37 21 -56c16 -21 37 -33 61 -43h2c-57 -37 -84 -72 -84 -100v-202
c0 -46 -14 -77 -43 -97c-27 -23 -75 -33 -142 -33l-29 2c-1 5 -1 8 -1 17z" />
    <glyph glyph-name="bar" unicode="|" horiz-adv-x="132" 
d="M34 -141h63v866h-63v-866z" />
    <glyph glyph-name="braceleft" unicode="{" horiz-adv-x="375" 
d="M335 -124c0 6 0 12 -1 16c-107 1 -152 20 -144 95v202c0 36 -24 69 -72 100c48 37 72 73 72 99v202c0 41 11 67 30 78c18 14 55 21 113 21v9c0 9 0 19 -2 29c-152 0 -211 -40 -211 -137v-202c0 -19 -6 -37 -21 -56c-16 -21 -37 -33 -61 -43h-2c57 -37 84 -72 84 -100
v-202c0 -46 14 -77 43 -97c27 -23 75 -33 142 -33l29 2c1 5 1 8 1 17z" />
    <glyph glyph-name="zero" unicode="0" horiz-adv-x="280" 
d="M210 103v155l-140 69v-154z" />
    <glyph glyph-name="one" unicode="1" horiz-adv-x="251" 
d="M181 0v632l-111 -81v-551h111z" />
    <glyph glyph-name="two" unicode="2" horiz-adv-x="526" 
d="M456 548v98c-50 -1 -86 -1 -108 -1c-200 0 -278 -148 -278 -369v-276h111v336c0 55 14 102 41 143c31 46 73 69 126 69h108z" />
    <glyph glyph-name="three" unicode="3" horiz-adv-x="568" 
d="M531 540v101h-108v-75c0 -69 -3 -117 -96 -117c33 11 33 62 33 91v101h-88v-75c0 -69 -10 -103 -91 -103v178h-111v-641h111v361h139c61 0 110 14 147 42c43 32 64 78 64 137z" />
    <glyph glyph-name="four" unicode="4" horiz-adv-x="496" 
d="M447 0v93h-181c-62 0 -104 40 -104 100c0 68 42 107 104 107h58v75h-54c-51 0 -93 37 -93 86c0 56 30 94 93 94h155v90h-174c-109 0 -187 -62 -187 -156c0 -80 41 -132 122 -156c-91 -17 -137 -67 -137 -150c0 -108 92 -183 217 -183h181z" />
    <glyph glyph-name="five" unicode="5" horiz-adv-x="556" 
d="M505 283c0 67 -32 137 -98 208c-53 57 -98 92 -135 105c-35 -13 -78 -49 -131 -109c-64 -73 -96 -142 -96 -205c0 -151 88 -243 231 -243s229 99 229 244zM391 279c0 -86 -47 -139 -118 -139c-73 0 -119 53 -119 139c0 69 68 181 119 208c55 -30 118 -137 118 -208z" />
    <glyph glyph-name="six" unicode="6" horiz-adv-x="526" 
d="M70 548v98c50 -1 86 -1 108 -1c200 0 278 -148 278 -369v-276h-111v336c0 55 -14 102 -41 143c-31 46 -73 69 -126 69h-108z" />
    <glyph glyph-name="seven" unicode="7" horiz-adv-x="549" 
d="M349 0l150 645h-122l-98 -521l-115 521h-114l153 -645h146z" />
    <glyph glyph-name="eight" unicode="8" horiz-adv-x="549" 
d="M499 0l-150 645h-146l-153 -645h114l115 522l98 -522h122z" />
    <glyph glyph-name="nine" unicode="9" horiz-adv-x="558" 
d="M488 419c0 65 -22 118 -65 161s-97 65 -163 65c-65 0 -118 -21 -159 -63c-41 -41 -61 -95 -61 -160c0 -69 17 -125 52 -168c39 -47 95 -71 168 -71c49 0 88 18 118 53v-236h110v419zM374 411c0 -33 -8 -62 -25 -86c-19 -27 -46 -41 -79 -41c-34 0 -61 14 -82 41
c-18 25 -27 55 -27 90s8 64 25 87c19 27 46 41 79 41c34 0 61 -14 82 -42c18 -25 27 -55 27 -90z" />
    <glyph glyph-name="quotedblleft" unicode="&#x201c;" horiz-adv-x="267" 
d="M237 647h-26c-47 -43 -70 -79 -70 -108v-81h80v72c-20 -1 -30 7 -31 25c-1 32 15 63 47 92zM130 647h-25c-47 -43 -71 -79 -71 -108v-81h80v72c-20 -1 -30 7 -31 25c-1 32 15 63 47 92z" />
    <glyph glyph-name="quotedblright" unicode="&#x201d;" horiz-adv-x="267" 
d="M237 565v82h-79v-73c20 1 30 -7 30 -25c1 -31 -15 -62 -47 -91h25c47 43 71 78 71 107zM130 565v82h-79v-73c20 1 30 -7 31 -25c1 -31 -15 -62 -48 -91h25c47 43 71 78 71 107z" />
    <glyph glyph-name="hyphenminus" unicode="&#x2010;" horiz-adv-x="454" 
d="M24 192h421v39h-421v-39z" />
    <glyph glyph-name="delete" unicode="&#x2421;" horiz-adv-x="709" 
d="M674 57v31h-127v229h-36v-260h163zM479 57v31h-159v88h143v31h-143v79h153v31h-189v-260h195zM253 189c0 71 -26 112 -79 124c-10 3 -25 4 -46 4h-90v-260h95c15 0 29 2 41 5c53 13 79 55 79 127zM218 189c0 -37 -9 -65 -26 -83c-13 -12 -34 -18 -63 -18h-56v198h55
c20 0 35 -2 44 -5c31 -12 46 -43 46 -92z" />
    <glyph glyph-name="nbspace" unicode="&#xa0;" horiz-adv-x="623" 
 />
    <glyph glyph-name="ornaterightparenthesis" unicode="&#xfd3f;" horiz-adv-x="368" 
d="M336 295c0 121 -36 227 -107 320c-29 37 -64 73 -105 106c-9 7 -16 12 -21 17l-41 -55c51 -41 90 -97 118 -168c29 -71 43 -147 43 -229c0 -123 -30 -226 -91 -310c-15 -21 -38 -47 -70 -80l43 -47c56 43 100 87 132 133c66 93 99 198 99 313z" />
    <glyph glyph-name="ornateleftparenthesis" unicode="&#xfd3e;" horiz-adv-x="310" 
d="M310 -97c-51 41 -90 97 -119 168s-43 148 -43 230c0 123 30 226 90 309c15 21 38 48 70 81l-42 47c-57 -43 -98 -86 -133 -134c-65 -91 -98 -196 -98 -313c0 -168 71 -310 212 -426l22 -16z" />
    <glyph glyph-name="righttoleft" unicode="&#x200f;" horiz-adv-x="20" 
d="M20 0v722h-96l36 36l-14 14l-60 -61l60 -61l14 14l-38 38h78v-702h20z" />
    <glyph glyph-name="lefttoright" unicode="&#x200e;" horiz-adv-x="20" 
d="M134 711l-60 61l-14 -14l36 -36h-96v-722h20v702h78l-38 -38l14 -14z" />
    <glyph glyph-name="zerojoin" unicode="&#x200d;" horiz-adv-x="20" 
d="M71 663l-47 48l47 47l-14 14l-47 -48l-47 48l-14 -14l48 -47l-48 -48l14 -13l37 37v-687h20v687l37 -37z" />
    <glyph glyph-name="zeronojoin" unicode="&#x200c;" horiz-adv-x="20" 
d="M20 0v722h-20v-722h20z" />
    <glyph glyph-name="extendedarabicindicdigitnine" unicode="&#x6f9;" horiz-adv-x="558" 
d="M488 419c0 65 -22 118 -65 161s-97 65 -163 65c-65 0 -118 -21 -159 -63c-41 -41 -61 -95 -61 -160c0 -69 17 -125 52 -168c39 -47 95 -71 168 -71c49 0 88 18 118 53v-236h110v419zM374 411c0 -33 -8 -62 -25 -86c-19 -27 -46 -41 -79 -41c-34 0 -61 14 -82 41
c-18 25 -27 55 -27 90s8 64 25 87c19 27 46 41 79 41c34 0 61 -14 82 -42c18 -25 27 -55 27 -90z" />
    <glyph glyph-name="extendedarabicindicdigiteight" unicode="&#x6f8;" horiz-adv-x="549" 
d="M499 0l-150 645h-146l-153 -645h114l115 522l98 -522h122z" />
    <glyph glyph-name="extendedarabicindicdigitseven" unicode="&#x6f7;" horiz-adv-x="549" 
d="M349 0l150 645h-122l-98 -521l-115 521h-114l153 -645h146z" />
    <glyph glyph-name="extendedarabicindicdigitsix" unicode="&#x6f6;" horiz-adv-x="526" 
d="M70 548v98c50 -1 86 -1 108 -1c200 0 278 -148 278 -369v-276h-111v336c0 55 -14 102 -41 143c-31 46 -73 69 -126 69h-108z" />
    <glyph glyph-name="extendedarabicindicdigitfive" unicode="&#x6f5;" horiz-adv-x="556" 
d="M505 283c0 67 -32 137 -98 208c-53 57 -98 92 -135 105c-35 -13 -78 -49 -131 -109c-64 -73 -96 -142 -96 -205c0 -151 88 -243 231 -243s229 99 229 244zM391 279c0 -86 -47 -139 -118 -139c-73 0 -119 53 -119 139c0 69 68 181 119 208c55 -30 118 -137 118 -208z" />
    <glyph glyph-name="extendedarabicindicdigitfour" unicode="&#x6f4;" horiz-adv-x="496" 
d="M447 0v93h-181c-62 0 -104 40 -104 100c0 68 42 107 104 107h58v75h-54c-51 0 -93 37 -93 86c0 56 30 94 93 94h155v90h-174c-109 0 -187 -62 -187 -156c0 -80 41 -132 122 -156c-91 -17 -137 -67 -137 -150c0 -108 92 -183 217 -183h181z" />
    <glyph glyph-name="extendedarabicindicdigitthree" unicode="&#x6f3;" horiz-adv-x="568" 
d="M531 540v101h-108v-75c0 -69 -3 -107 -86 -107c23 15 23 52 23 81v101h-98v-75c0 -69 -10 -103 -81 -103v178h-111v-641h111v361h139c61 0 110 14 147 42c43 32 64 78 64 137z" />
    <glyph glyph-name="extendedarabicindicdigittwo" unicode="&#x6f2;" horiz-adv-x="526" 
d="M456 548v98c-50 -1 -86 -1 -108 -1c-200 0 -278 -148 -278 -369v-276h111v336c0 55 14 102 41 143c31 46 73 69 126 69h108z" />
    <glyph glyph-name="extendedarabicindicdigitone" unicode="&#x6f1;" horiz-adv-x="251" 
d="M181 0v632l-111 -81v-551h111z" />
    <glyph glyph-name="extendedarabicindicdigitzero" unicode="&#x6f0;" horiz-adv-x="280" 
d="M210 103v155l-140 69v-154z" />
    <glyph glyph-name="superscriptalef" unicode="&#x670;" 
d="M23 744h34v174h-34v-174z" />
    <glyph glyph-name="maddaabove" unicode="&#x653;" 
d="M196 731l-9 35c-15 -19 -31 -28 -46 -28c-11 0 -28 8 -53 25s-43 25 -54 25c-18 0 -35 -14 -51 -42l9 -34c13 18 27 27 42 27s35 -8 58 -25s40 -25 50 -25c18 0 36 14 54 42z" />
    <glyph glyph-name="hamzaabove" unicode="&#x654;" 
d="M180 697v46h-81c-12 7 -18 20 -18 37c0 19 13 38 34 38c15 0 25 -7 28 -22l36 19c-14 29 -35 44 -63 44c-43 0 -78 -34 -78 -81c0 -5 3 -16 9 -35h-40v-46h173z" />
    <glyph glyph-name="hamzabelow" unicode="&#x655;" 
d="M184 -205v46h-81c-12 7 -18 20 -18 38c0 20 14 39 34 39c15 0 25 -7 28 -22l36 17c-14 31 -35 46 -63 46c-43 0 -78 -36 -78 -83c0 -4 3 -16 9 -35h-40v-46h173z" />
    <glyph glyph-name="zerowidthnobreakspace" unicode="&#xfeff;" 
 />
    <glyph glyph-name="_246" 
 />
    <glyph glyph-name="at" unicode="*" horiz-adv-x="342" 
d="M310 136v49l-111 -11l63 95l-43 29l-48 -110l-46 110l-47 -30l64 -95l-110 12v-51l111 7l-63 -96l45 -29l46 108l49 -103l47 24l-66 97z" />
    </font>
</defs>
</svg>
